<svg width="20" height="20" viewBox="0 0 20 20" fill="none" xmlns="http://www.w3.org/2000/svg">
<path d="M16.7212 13.216C16.405 12.256 16.2434 11.2518 16.2425 10.241V7.74354C16.2655 6.16102 15.7008 4.62621 14.6575 3.43604C13.6178 2.24399 12.1748 1.47753 10.605 1.28354C9.7375 1.19354 8.855 1.28354 8.0175 1.56729C7.18 1.83604 6.4175 2.28479 5.775 2.88354C5.1293 3.46685 4.61464 4.18046 4.265 4.97729C3.91362 5.77381 3.73022 6.63422 3.72625 7.50479V10.2548C3.72442 11.2614 3.56282 12.2613 3.2475 13.2173L2.5 15.4285L3.09875 16.251H7.48C7.48 16.9085 7.74875 17.551 8.2125 18.016C8.675 18.4785 9.31875 18.7485 9.9775 18.7485C10.635 18.7485 11.2775 18.4798 11.7412 18.016C12.205 17.5523 12.475 16.9085 12.475 16.251H16.8562L17.4537 15.4285L16.7212 13.216ZM10.8587 17.1498C10.7437 17.2671 10.6067 17.3605 10.4554 17.4246C10.3042 17.4888 10.1418 17.5224 9.9775 17.5235C9.81293 17.5224 9.65021 17.4887 9.49874 17.4243C9.34727 17.3599 9.21005 17.2662 9.095 17.1485C8.97747 17.0336 8.88383 16.8966 8.81947 16.7454C8.75511 16.5941 8.7213 16.4316 8.72 16.2673H11.2188C11.224 16.4313 11.1947 16.5946 11.1329 16.7466C11.0711 16.8986 10.9782 17.0359 10.86 17.1498H10.8587ZM3.965 15.0123L4.42875 13.6198C4.79039 12.535 4.97731 11.3995 4.9825 10.256V7.50479C4.9825 6.80104 5.1325 6.11354 5.41625 5.48479C5.7 4.84229 6.10375 4.27354 6.6275 3.80979C7.15125 3.33229 7.765 2.97229 8.4225 2.76354C9.095 2.53854 9.7975 2.46354 10.485 2.53854C11.745 2.70422 12.9003 3.327 13.7312 4.28854C14.5625 5.25128 15.0093 6.48682 14.9862 7.75854V10.271C14.9862 11.4073 15.1662 12.5435 15.54 13.6348L16.0037 15.026H3.96625V15.011L3.965 15.0123Z" fill="#010101"/>
</svg>
