<svg width="20" height="21" viewBox="0 0 20 21" fill="none" xmlns="http://www.w3.org/2000/svg">
<g clip-path="url(#clip0_135_3414)">
<path d="M14.381 8.21555V19.9895L1.5 16.195V4.43164L14.381 8.21555Z" fill="#E0E0E0" stroke="#3D3D3D" stroke-width="0.4" stroke-linecap="round" stroke-linejoin="round"/>
<path d="M2.56055 13.8357V5.8457L13.3204 9.01743V17.0022L2.56055 13.8357Z" stroke="#3D3D3D" stroke-width="0.4" stroke-linecap="round" stroke-linejoin="round"/>
<path d="M18.9998 6.85938V18.6333L14.3809 20.0001V8.22623L18.9998 6.85938Z" fill="#06C270" stroke="#3D3D3D" stroke-width="0.4" stroke-linecap="round" stroke-linejoin="round"/>
<path d="M6.12423 3.06445L19 6.85892L14.381 8.22577L1.5 4.43131L6.12423 3.06445Z" fill="#E0E0E0" stroke="#3D3D3D" stroke-width="0.4" stroke-linecap="round" stroke-linejoin="round"/>
<path d="M8.92966 16.5854L7.05767 16.0576C6.99672 16.0374 6.93181 16.032 6.86833 16.0419C6.80485 16.0517 6.74459 16.0765 6.6927 16.1142C6.64081 16.1519 6.59873 16.2014 6.56997 16.2586C6.5412 16.3158 6.52662 16.379 6.52737 16.4429C6.52629 16.5696 6.56724 16.6932 6.64396 16.7943C6.72067 16.8955 6.82882 16.9686 6.95158 17.0023L8.82356 17.53C8.88452 17.5502 8.94943 17.5556 9.01291 17.5458C9.07639 17.5359 9.13664 17.5111 9.18853 17.4734C9.24042 17.4357 9.2825 17.3862 9.31127 17.3291C9.34003 17.2719 9.35462 17.2087 9.35386 17.1448C9.35406 17.0183 9.31276 16.8952 9.23618 16.7942C9.1596 16.6932 9.05197 16.6199 8.92966 16.5854Z" fill="#06C270" stroke="#3D3D3D" stroke-width="0.4" stroke-linecap="round" stroke-linejoin="round"/>
<path d="M7.88997 1.04354C7.88997 0.985487 7.7521 0.985487 7.63544 1.04354C7.51877 1.10159 7.43925 1.17547 7.46046 1.23352L9.08315 5.03327L9.50742 4.84856L7.88997 1.04354Z" fill="#E0E0E0" stroke="#3D3D3D" stroke-width="0.4" stroke-linecap="round" stroke-linejoin="round"/>
<path d="M11.7771 5.5771C11.7771 5.87263 10.971 6.10484 9.97938 6.10484C8.98771 6.10484 8.18164 5.86735 8.18164 5.5771C8.18164 5.28684 8.98771 4.61133 9.97938 4.61133C10.971 4.61133 11.7771 5.29212 11.7771 5.5771Z" fill="#06C270" stroke="#3D3D3D" stroke-width="0.4" stroke-linecap="round" stroke-linejoin="round"/>
<path d="M13.1981 2.16743L10.9602 5.50804C10.9284 5.55554 10.8118 5.5397 10.7057 5.46582C10.5996 5.39193 10.5413 5.30222 10.5731 5.24944L12.811 1.90884C12.8428 1.86134 12.9595 1.87717 13.0655 1.95106C13.1716 2.02494 13.2299 2.11466 13.1981 2.16743Z" fill="#E0E0E0" stroke="#3D3D3D" stroke-width="0.4" stroke-linecap="round" stroke-linejoin="round"/>
</g>
<defs>
<clipPath id="clip0_135_3414">
<rect width="20" height="20" fill="white" transform="translate(0 0.5)"/>
</clipPath>
</defs>
</svg>
