<svg width="25" height="57" viewBox="0 0 25 57" fill="none" xmlns="http://www.w3.org/2000/svg">
<path d="M21.1872 37.447C16.2047 36.9553 15.7649 35.2315 15.404 29.5711L14.9331 20.5999L14.2644 29.5924C13.9241 35.6073 12.6245 37.0039 8.36302 37.6216L3.00964 38.192L8.29232 38.5618C12.8988 38.96 13.9662 40.6749 14.2523 46.5268L14.5413 55.5025L15.132 46.4339C15.5657 39.9892 16.7404 39.0352 21.2273 38.4872L26.4621 37.8986L21.1872 37.447Z" fill="#D5BBFF"/>
<path d="M22.0632 8.76239C19.6967 8.52886 19.4878 7.7101 19.3164 5.0216L19.0927 0.760591L18.7751 5.03171C18.6134 7.88857 17.9962 8.55191 15.9721 8.84531L13.4295 9.11621L15.9386 9.29185C18.1265 9.48099 18.6334 10.2955 18.7693 13.075L18.9066 17.3381L19.1872 13.0308C19.3932 9.96981 19.9511 9.51674 22.0822 9.25643L24.5686 8.9769L22.0632 8.76239Z" fill="#D5BBFF"/>
</svg>
