<svg width="13" height="12" viewBox="0 0 13 12" fill="none" xmlns="http://www.w3.org/2000/svg">
<path d="M10.2812 0.3125H1.96875C1.44678 0.313079 0.94636 0.520686 0.577273 0.889773C0.208186 1.25886 0.000578999 1.75928 0 2.28125V7.53125C0.000578999 8.05322 0.208186 8.55364 0.577273 8.92273C0.94636 9.29181 1.44678 9.49942 1.96875 9.5H2.625V11.25C2.62498 11.3332 2.64867 11.4147 2.6933 11.4848C2.73793 11.555 2.80165 11.6111 2.87699 11.6463C2.95233 11.6816 3.03616 11.6947 3.11866 11.684C3.20116 11.6733 3.2789 11.6393 3.34277 11.5861L5.84445 9.5H10.2812C10.8032 9.49942 11.3036 9.29181 11.6727 8.92273C12.0418 8.55364 12.2494 8.05322 12.25 7.53125V2.28125C12.2494 1.75928 12.0418 1.25886 11.6727 0.889773C11.3036 0.520686 10.8032 0.313079 10.2812 0.3125ZM3.5 5.78125C3.32694 5.78125 3.15777 5.72993 3.01388 5.63379C2.86998 5.53764 2.75783 5.40098 2.69161 5.2411C2.62538 5.08121 2.60805 4.90528 2.64181 4.73555C2.67557 4.56581 2.75891 4.4099 2.88128 4.28753C3.00365 4.16516 3.15956 4.08182 3.3293 4.04806C3.49903 4.0143 3.67496 4.03163 3.83485 4.09785C3.99473 4.16408 4.13139 4.27623 4.22754 4.42013C4.32368 4.56402 4.375 4.73319 4.375 4.90625C4.375 5.13831 4.28281 5.36087 4.11872 5.52497C3.95462 5.68906 3.73206 5.78125 3.5 5.78125ZM6.125 5.78125C5.95194 5.78125 5.78277 5.72993 5.63888 5.63379C5.49498 5.53764 5.38283 5.40098 5.31661 5.2411C5.25038 5.08121 5.23305 4.90528 5.26681 4.73555C5.30057 4.56581 5.38391 4.4099 5.50628 4.28753C5.62865 4.16516 5.78456 4.08182 5.9543 4.04806C6.12403 4.0143 6.29996 4.03163 6.45985 4.09785C6.61973 4.16408 6.75639 4.27623 6.85254 4.42013C6.94868 4.56402 7 4.73319 7 4.90625C7 5.13831 6.90781 5.36087 6.74372 5.52497C6.57962 5.68906 6.35706 5.78125 6.125 5.78125ZM8.75 5.78125C8.57694 5.78125 8.40777 5.72993 8.26388 5.63379C8.11998 5.53764 8.00783 5.40098 7.94161 5.2411C7.87538 5.08121 7.85805 4.90528 7.89181 4.73555C7.92557 4.56581 8.00891 4.4099 8.13128 4.28753C8.25365 4.16516 8.40956 4.08182 8.5793 4.04806C8.74903 4.0143 8.92496 4.03163 9.08485 4.09785C9.24473 4.16408 9.38139 4.27623 9.47754 4.42013C9.57368 4.56402 9.625 4.73319 9.625 4.90625C9.625 5.13831 9.53281 5.36087 9.36872 5.52497C9.20462 5.68906 8.98206 5.78125 8.75 5.78125Z" fill="white"/>
</svg>
