<svg width="18" height="18" viewBox="0 0 18 18" fill="none" xmlns="http://www.w3.org/2000/svg">
<path fill-rule="evenodd" clip-rule="evenodd" d="M17.4 17.4L0.6 17.4L0.600002 0.599999L17.4 0.6L17.4 17.4ZM18 18L17.4 18L0.6 18L0 18L5.24537e-08 17.4L1.52116e-06 0.599999L1.57361e-06 -1.57361e-06L0.600002 -1.52116e-06L17.4 -5.24537e-08L18 0L18 0.6L18 17.4L18 18ZM13.0305 6.24099L9.00004 10.2715L4.96953 6.24099L4.54526 6.66526L8.7879 10.9079L9.00004 11.12L9.21217 10.9079L13.4548 6.66526L13.0305 6.24099Z" fill="white"/>
</svg>
