<svg width="27" height="26" viewBox="0 0 27 26" fill="none" xmlns="http://www.w3.org/2000/svg">
<path d="M14.3057 13C15.6518 13 16.7432 14.0913 16.7432 15.4375L16.7419 16.6536C16.9091 19.638 14.6104 21.1263 10.3478 21.1263C6.09897 21.1263 3.75 19.6575 3.75 16.6961V15.4375C3.75 14.0913 4.84131 13 6.1875 13H14.3057ZM20.8067 13C22.1528 13 23.2442 14.0913 23.2442 15.4375L23.2429 16.2931C23.3898 18.9703 21.3587 20.3125 17.6464 20.3125C17.1424 20.3125 16.6687 20.288 16.2262 20.2388C17.0983 19.4335 17.5649 18.3405 17.5633 16.9594L17.5531 16.6081L17.5557 15.4375C17.5557 14.4665 17.1298 13.5948 16.4547 12.9993L20.8067 13ZM10.25 3.25C12.494 3.25 14.3131 5.06914 14.3131 7.31316C14.3131 9.55719 12.494 11.3763 10.25 11.3763C8.00598 11.3763 6.18684 9.55719 6.18684 7.31316C6.18684 5.06914 8.00598 3.25 10.25 3.25ZM18.375 4.875C20.1699 4.875 21.625 6.33007 21.625 8.125C21.625 9.91989 20.1699 11.375 18.375 11.375C16.5801 11.375 15.125 9.91989 15.125 8.125C15.125 6.33007 16.5801 4.875 18.375 4.875Z" fill="#D5BBFF"/>
</svg>
