<svg width="27" height="26" viewBox="0 0 27 26" fill="none" xmlns="http://www.w3.org/2000/svg">
<path d="M4.83341 15.1656L14.5834 15.1667C15.725 15.1667 16.6614 16.0501 16.7441 17.1716L16.7501 17.3333V18.9583C16.749 22.75 12.7244 23.8333 9.70842 23.8333C6.75944 23.8333 2.84517 22.7977 2.67265 19.2071L2.66675 18.9583V17.3322C2.66675 16.1906 3.55118 15.2543 4.67179 15.1715L4.83341 15.1656ZM16.9884 15.1667H22.1667C23.3084 15.1667 24.2447 16.0511 24.3275 17.1717L24.3334 17.3333V18.4167C24.3323 21.7338 21.2372 22.75 18.9167 22.75C18.1801 22.75 17.3665 22.646 16.5984 22.4012C16.9624 21.983 17.256 21.5052 17.4672 20.9636C18.0555 21.099 18.608 21.125 18.9167 21.125L19.2055 21.1185C20.2729 21.0718 22.5491 20.7248 22.7005 18.6387L22.7084 18.4167V17.3333C22.7084 17.0676 22.5158 16.8463 22.2638 16.8004L22.1667 16.7917H17.7782C17.6872 16.2485 17.4601 15.7551 17.1341 15.3398L16.9884 15.1667H22.1667H16.9884ZM4.83341 16.7906L4.72437 16.8014C4.58962 16.8288 4.49758 16.9019 4.44991 16.9487C4.40311 16.9964 4.32997 17.0877 4.30258 17.2228L4.29175 17.3322V18.9583C4.29175 20.0514 4.77925 20.8238 5.82683 21.3872C6.72183 21.8691 7.99622 22.161 9.36454 22.203L9.70842 22.2083L10.0523 22.203C11.4204 22.161 12.694 21.8691 13.59 21.3872C14.5711 20.859 15.0618 20.1472 15.1193 19.1586L15.1251 18.9572V17.3333C15.1251 17.0676 14.9325 16.8463 14.6805 16.8004L14.5834 16.7917L4.83341 16.7906ZM9.70842 3.25C12.4005 3.25 14.5834 5.43292 14.5834 8.125C14.5834 10.8171 12.4005 13 9.70842 13C7.01633 13 4.83341 10.8171 4.83341 8.125C4.83341 5.43292 7.01633 3.25 9.70842 3.25ZM19.4584 5.41667C21.5525 5.41667 23.2501 7.11425 23.2501 9.20833C23.2501 11.3024 21.5525 13 19.4584 13C17.3643 13 15.6667 11.3024 15.6667 9.20833C15.6667 7.11425 17.3643 5.41667 19.4584 5.41667ZM9.70842 4.875C7.91658 4.875 6.45841 6.33317 6.45841 8.125C6.45841 9.91683 7.91658 11.375 9.70842 11.375C11.5002 11.375 12.9584 9.91683 12.9584 8.125C12.9584 6.33317 11.5002 4.875 9.70842 4.875ZM19.4584 7.04167C18.2635 7.04167 17.2917 8.01342 17.2917 9.20833C17.2917 10.4032 18.2635 11.375 19.4584 11.375C20.6533 11.375 21.6251 10.4032 21.6251 9.20833C21.6251 8.01342 20.6533 7.04167 19.4584 7.04167Z" fill="#959595"/>
</svg>
