<svg width="375" height="127" viewBox="0 0 375 127" fill="none" xmlns="http://www.w3.org/2000/svg">
<path d="M-4 65.82C13.7061 80.8191 60.1844 106.874 104.45 91.0993C159.781 71.3815 180.807 58.7418 220.092 74.9206C259.378 91.0993 272.104 76.9429 283.17 65.82C294.236 54.6971 300.323 64.8088 324.669 60.2586C349.014 55.7083 347.908 38.5184 380 52.1692" stroke="white" stroke-opacity="0.12" stroke-width="8"/>
<path d="M-4 89.82C13.7061 104.819 60.1844 130.874 104.45 115.099C159.781 95.3815 180.807 82.7418 220.092 98.9206C259.378 115.099 272.104 100.943 283.17 89.82C294.236 78.6971 300.323 88.8088 324.669 84.2586C349.014 79.7083 347.908 62.5184 380 76.1692" stroke="white" stroke-opacity="0.12" stroke-width="14"/>
<path d="M-4 48.82C13.7061 63.8191 60.1844 89.8736 104.45 74.0993C159.781 54.3815 180.807 41.7418 220.092 57.9206C259.378 74.0993 272.104 59.9429 283.17 48.82C294.236 37.6971 300.323 47.8088 324.669 43.2586C349.014 38.7083 347.908 21.5184 380 35.1692" stroke="white" stroke-opacity="0.12" stroke-width="4"/>
<path d="M-4 33.82C13.7061 48.8191 60.1844 74.8736 104.45 59.0993C159.781 39.3815 180.807 26.7418 220.092 42.9206C259.378 59.0993 272.104 44.9429 283.17 33.82C294.236 22.6971 300.323 32.8088 324.669 28.2586C349.014 23.7083 347.908 6.5184 380 20.1692" stroke="white" stroke-opacity="0.12" stroke-width="2"/>
<path d="M-4 19.82C13.7061 34.8191 60.1844 60.8736 104.45 45.0993C159.781 25.3815 180.807 12.7418 220.092 28.9206C259.378 45.0993 272.104 30.9429 283.17 19.82C294.236 8.69713 300.323 18.8088 324.669 14.2586C349.014 9.70831 347.908 -7.4816 380 6.16921" stroke="white" stroke-opacity="0.12"/>
<path d="M152.752 59.168V60.168H153.909L153.741 59.023L152.752 59.168ZM152.752 62.24L153.742 62.3828L153.907 61.24H152.752V62.24ZM147.088 62.24V61.24H146.257L146.105 62.0567L147.088 62.24ZM147.088 59.168L146.109 59.3723L146.275 60.168H147.088V59.168ZM153.741 59.023C152.744 52.2194 145.91 48.024 137.712 48.024V50.024C145.386 50.024 150.968 53.8926 151.763 59.313L153.741 59.023ZM137.712 48.024C133.16 48.024 129.162 49.236 126.277 51.46C123.373 53.6996 121.64 56.9383 121.64 60.832H123.64C123.64 57.5897 125.059 54.9244 127.499 53.044C129.958 51.148 133.496 50.024 137.712 50.024V48.024ZM121.64 60.832C121.64 64.6948 123.365 67.9173 126.262 70.1482C129.138 72.3639 133.128 73.576 137.68 73.576V71.576C133.464 71.576 129.934 70.4521 127.482 68.5638C125.051 66.6907 123.64 64.0412 123.64 60.832H121.64ZM137.68 73.576C145.926 73.576 152.747 69.2725 153.742 62.3828L151.762 62.0972C150.965 67.6235 145.37 71.576 137.68 71.576V73.576ZM152.752 61.24H147.088V63.24H152.752V61.24ZM146.105 62.0567C145.521 65.1883 142.324 67.48 137.744 67.48V69.48C142.892 69.48 147.247 66.8437 148.071 62.4233L146.105 62.0567ZM137.744 67.48C135.183 67.48 133.084 66.7759 131.648 65.6175C130.23 64.4741 129.4 62.8476 129.4 60.832H127.4C127.4 63.4564 128.506 65.6539 130.392 67.1745C132.26 68.6801 134.833 69.48 137.744 69.48V67.48ZM129.4 60.832C129.4 58.7979 130.232 57.1554 131.657 56.0012C133.101 54.8321 135.215 54.12 137.808 54.12V52.12C134.865 52.12 132.275 52.9279 130.399 54.4468C128.504 55.9806 127.4 58.1941 127.4 60.832H129.4ZM137.808 54.12C142.272 54.12 145.474 56.3279 146.109 59.3723L148.067 58.9637C147.166 54.6481 142.816 52.12 137.808 52.12V54.12ZM147.088 60.168H152.752V58.168H147.088V60.168ZM155.227 72H154.227V73H155.227V72ZM160.571 72V73H161.571V72H160.571ZM160.571 61.408L159.703 60.9119L159.571 61.1424V61.408H160.571ZM168.667 58.432L168.557 59.4259L169.667 59.5493V58.432H168.667ZM168.667 54.048H169.667V53.1807L168.809 53.058L168.667 54.048ZM160.571 58.08H159.571V61.5451L161.417 58.6128L160.571 58.08ZM160.571 54.4H161.571V53.4H160.571V54.4ZM155.227 54.4V53.4H154.227V54.4H155.227ZM155.227 73H160.571V71H155.227V73ZM161.571 72V61.408H159.571V72H161.571ZM161.439 61.9041C162.35 60.3107 164.429 59.336 166.939 59.336V57.336C164.01 57.336 161.096 58.4733 159.703 60.9119L161.439 61.9041ZM166.939 59.336C167.478 59.336 168.017 59.3659 168.557 59.4259L168.778 57.4381C168.165 57.3701 167.552 57.336 166.939 57.336V59.336ZM169.667 58.432V54.048H167.667V58.432H169.667ZM168.809 53.058C168.514 53.016 168.362 53.016 168.123 53.016V55.016C168.332 55.016 168.372 55.016 168.526 55.0379L168.809 53.058ZM168.123 53.016C164.323 53.016 161.54 54.665 159.725 57.5472L161.417 58.6128C162.867 56.311 165.012 55.016 168.123 55.016V53.016ZM161.571 58.08V54.4H159.571V58.08H161.571ZM160.571 53.4H155.227V55.4H160.571V53.4ZM154.227 54.4V72H156.227V54.4H154.227ZM185.838 69.408H186.838V67.0204L185.136 68.6953L185.838 69.408ZM185.838 72H184.838V73H185.838V72ZM191.086 72V73H192.086V72H191.086ZM169.773 60.736L168.808 60.4749L168.467 61.736H169.773V60.736ZM174.798 60.736V61.736H175.508L175.742 61.0657L174.798 60.736ZM180.621 61.632L180.497 60.6397L180.494 60.6401L180.621 61.632ZM180.493 64.544L180.369 63.5517L180.363 63.5525L180.493 64.544ZM185.838 63.264H186.838V61.4497L185.304 62.4185L185.838 63.264ZM185.838 66.656L186.558 67.3496L186.838 67.0592V66.656H185.838ZM177.357 73.416C181.028 73.416 184.254 72.37 186.539 70.1207L185.136 68.6953C183.325 70.478 180.663 71.416 177.357 71.416V73.416ZM184.838 69.408V72H186.838V69.408H184.838ZM185.838 73H191.086V71H185.838V73ZM192.086 72V61.152H190.086V72H192.086ZM192.086 61.152C192.086 58.4809 191.054 56.3556 189.082 54.9364C187.16 53.5535 184.458 52.92 181.229 52.92V54.92C184.241 54.92 186.467 55.5185 187.913 56.5596C189.309 57.5644 190.086 59.0551 190.086 61.152H192.086ZM181.229 52.92C174.911 52.92 170.024 55.9813 168.808 60.4749L170.739 60.9971C171.635 57.6827 175.451 54.92 181.229 54.92V52.92ZM169.773 61.736H174.798V59.736H169.773V61.736ZM175.742 61.0657C176.257 59.5894 177.935 58.312 181.037 58.312V56.312C177.42 56.312 174.746 57.8506 173.853 60.4063L175.742 61.0657ZM181.037 58.312C182.501 58.312 183.514 58.5486 184.12 58.8535C184.729 59.1592 184.773 59.4329 184.773 59.52H186.773C186.773 58.3911 186.002 57.5608 185.019 57.0665C184.033 56.5714 182.678 56.312 181.037 56.312V58.312ZM184.773 59.52C184.773 59.5426 184.78 59.56 184.714 59.6225C184.617 59.7137 184.411 59.8431 184.02 59.98C183.231 60.2555 182.048 60.4459 180.497 60.6397L180.746 62.6243C182.267 62.4341 183.66 62.2245 184.679 61.868C185.192 61.6889 185.698 61.4443 186.087 61.0765C186.507 60.68 186.773 60.1534 186.773 59.52H184.773ZM180.494 60.6401C178.075 60.9502 175.087 61.2112 172.747 62.0096C171.561 62.414 170.442 62.9859 169.612 63.8517C168.757 64.7449 168.261 65.8978 168.261 67.328H170.261C170.261 66.4062 170.562 65.7511 171.057 65.2353C171.577 64.6921 172.362 64.254 173.392 63.9024C175.484 63.1888 178.176 62.9538 180.749 62.6239L180.494 60.6401ZM168.261 67.328C168.261 69.2419 169.259 70.8097 170.9 71.8554C172.511 72.8819 174.742 73.416 177.357 73.416V71.416C174.981 71.416 173.164 70.9261 171.975 70.1686C170.816 69.4303 170.261 68.4541 170.261 67.328H168.261ZM175.478 67.2C175.478 66.9914 175.539 66.8631 175.669 66.7367C175.831 66.579 176.125 66.4072 176.613 66.245C177.606 65.915 178.989 65.7502 180.624 65.5355L180.363 63.5525C178.83 63.7538 177.205 63.941 175.982 64.347C175.362 64.5528 174.746 64.845 174.275 65.3033C173.772 65.7929 173.478 66.4326 173.478 67.2H175.478ZM180.618 65.5363C181.631 65.4096 182.705 65.2769 183.68 65.0753C184.643 64.8761 185.609 64.5911 186.371 64.1095L185.304 62.4185C184.85 62.7049 184.168 62.9319 183.275 63.1167C182.394 63.2991 181.404 63.4224 180.369 63.5517L180.618 65.5363ZM184.838 63.264V63.328H186.838V63.264H184.838ZM184.838 63.328V66.656H186.838V63.328H184.838ZM185.117 65.9624C183.704 67.4299 181.031 68.312 178.509 68.312V70.312C181.364 70.312 184.643 69.3381 186.558 67.3496L185.117 65.9624ZM178.509 68.312C177.311 68.312 176.487 68.121 176.001 67.8641C175.555 67.6282 175.478 67.398 175.478 67.2H173.478C173.478 68.314 174.136 69.1398 175.066 69.6319C175.956 70.103 177.148 70.312 178.509 70.312V68.312ZM211.729 72V73H212.729V72H211.729ZM211.729 68.32H212.729V67.32H211.729V68.32ZM203.826 58.016V57.016H202.826V58.016H203.826ZM211.729 58.016V59.016H212.729V58.016H211.729ZM211.729 54.4H212.729V53.4H211.729V54.4ZM203.826 54.4H202.826V55.4H203.826V54.4ZM203.826 50.56H204.826V49.56H203.826V50.56ZM198.609 50.56V49.56H197.609V50.56H198.609ZM198.609 54.4V55.4H199.609V54.4H198.609ZM192.338 54.4V53.4H191.338V54.4H192.338ZM192.338 58.016H191.338V59.016H192.338V58.016ZM198.609 58.016H199.609V57.016H198.609V58.016ZM204.465 73H211.729V71H204.465V73ZM212.729 72V68.32H210.729V72H212.729ZM211.729 67.32H206.738V69.32H211.729V67.32ZM206.738 67.32C205.821 67.32 205.358 67.1576 205.137 66.992C204.98 66.874 204.826 66.6659 204.826 66.112H202.826C202.826 67.0941 203.135 67.99 203.938 68.592C204.677 69.1464 205.67 69.32 206.738 69.32V67.32ZM204.826 66.112V58.016H202.826V66.112H204.826ZM203.826 59.016H211.729V57.016H203.826V59.016ZM212.729 58.016V54.4H210.729V58.016H212.729ZM211.729 53.4H203.826V55.4H211.729V53.4ZM204.826 54.4V50.56H202.826V54.4H204.826ZM203.826 49.56H198.609V51.56H203.826V49.56ZM197.609 50.56V54.4H199.609V50.56H197.609ZM198.609 53.4H192.338V55.4H198.609V53.4ZM191.338 54.4V58.016H193.338V54.4H191.338ZM192.338 59.016H198.609V57.016H192.338V59.016ZM197.609 58.016V66.784H199.609V58.016H197.609ZM197.609 66.784C197.609 68.6675 198.115 70.2862 199.351 71.4147C200.57 72.5265 202.323 73 204.465 73V71C202.576 71 201.401 70.5775 200.7 69.9373C200.016 69.3138 199.609 68.3245 199.609 66.784H197.609ZM236.059 65.632L237.007 65.9504L237.45 64.632H236.059V65.632ZM230.779 65.632V64.632H230.153L229.879 65.1957L230.779 65.632ZM217.979 63.936V62.936H216.858L216.986 64.0498L217.979 63.936ZM236.347 63.936V64.936H237.347V63.936H236.347ZM230.843 61.248V62.248H232.266L231.784 60.9093L230.843 61.248ZM218.267 61.248L217.324 60.9165L216.856 62.248H218.267V61.248ZM224.507 73.576C230.638 73.576 235.459 70.5593 237.007 65.9504L235.111 65.3136C233.908 68.8967 230.025 71.576 224.507 71.576V73.576ZM236.059 64.632H230.779V66.632H236.059V64.632ZM229.879 65.1957C229.062 66.8817 227.232 67.992 224.571 67.992V69.992C227.799 69.992 230.449 68.6063 231.679 66.0683L229.879 65.1957ZM224.571 67.992C221.293 67.992 219.252 66.2629 218.973 63.8222L216.986 64.0498C217.41 67.7531 220.553 69.992 224.571 69.992V67.992ZM217.979 64.936H236.347V62.936H217.979V64.936ZM237.347 63.936V63.616H235.347V63.936H237.347ZM237.347 63.616C237.347 60.2689 235.865 57.5386 233.504 55.6681C231.161 53.8123 227.987 52.824 224.571 52.824V54.824C227.619 54.824 230.333 55.7076 232.262 57.2359C234.173 58.7494 235.347 60.9151 235.347 63.616H237.347ZM224.571 52.824C217.644 52.824 211.699 56.9562 211.699 63.232H213.699C213.699 58.4998 218.251 54.824 224.571 54.824V52.824ZM211.699 63.232C211.699 69.505 217.48 73.576 224.507 73.576V71.576C218.094 71.576 213.699 67.967 213.699 63.232H211.699ZM224.507 58.344C227.286 58.344 229.211 59.6668 229.902 61.5867L231.784 60.9093C230.747 58.0292 227.937 56.344 224.507 56.344V58.344ZM230.843 60.248H218.267V62.248H230.843V60.248ZM219.211 61.5795C219.875 59.688 221.773 58.344 224.507 58.344V56.344C221.097 56.344 218.323 58.072 217.324 60.9165L219.211 61.5795ZM238.662 72H237.662V73H238.662V72ZM244.006 72V73H245.006V72H244.006ZM244.006 61.408L243.138 60.9119L243.006 61.1424V61.408H244.006ZM252.102 58.432L251.992 59.4259L253.102 59.5493V58.432H252.102ZM252.102 54.048H253.102V53.1807L252.244 53.058L252.102 54.048ZM244.006 58.08H243.006V61.5451L244.852 58.6128L244.006 58.08ZM244.006 54.4H245.006V53.4H244.006V54.4ZM238.662 54.4V53.4H237.662V54.4H238.662ZM238.662 73H244.006V71H238.662V73ZM245.006 72V61.408H243.006V72H245.006ZM244.874 61.9041C245.785 60.3107 247.864 59.336 250.374 59.336V57.336C247.445 57.336 244.531 58.4733 243.138 60.9119L244.874 61.9041ZM250.374 59.336C250.913 59.336 251.452 59.3659 251.992 59.4259L252.213 57.4381C251.6 57.3701 250.987 57.336 250.374 57.336V59.336ZM253.102 58.432V54.048H251.102V58.432H253.102ZM252.244 53.058C251.949 53.016 251.797 53.016 251.558 53.016V55.016C251.767 55.016 251.807 55.016 251.961 55.0379L252.244 53.058ZM251.558 53.016C247.758 53.016 244.975 54.665 243.16 57.5472L244.852 58.6128C246.302 56.311 248.447 55.016 251.558 55.016V53.016ZM245.006 58.08V54.4H243.006V58.08H245.006ZM244.006 53.4H238.662V55.4H244.006V53.4ZM237.662 54.4V72H239.662V54.4H237.662Z" fill="white"/>
</svg>
