<svg width="24" height="24" viewBox="0 0 24 24" fill="none" xmlns="http://www.w3.org/2000/svg">
<path d="M11.3861 2.21064C11.7472 1.92979 12.2528 1.92979 12.6139 2.21064L20.8418 8.61012C21.5726 9.17848 22 10.0524 22 10.9782V20C22 21.1046 21.1046 22 20 22H16C14.8954 22 14 21.1046 14 20V14H10V20C10 21.1046 9.10456 22 8 22H4C2.89544 22 2 21.1046 2 20V10.9782C2 10.0524 2.42742 9.17848 3.15818 8.61012L11.3861 2.21064ZM12 4.26686L4.38606 10.1888C4.14248 10.3783 4 10.6696 4 10.9782V20H8V14C8 12.8954 8.89544 12 10 12H14C15.1046 12 16 12.8954 16 14V20H20V10.9782C20 10.6696 19.8575 10.3783 19.6139 10.1888L12 4.26686Z" fill="#959595"/>
</svg>
