<svg width="375" height="127" viewBox="0 0 375 127" fill="none" xmlns="http://www.w3.org/2000/svg">
<path d="M-4 65.82C13.7061 80.8191 60.1844 106.874 104.45 91.0993C159.781 71.3815 180.807 58.7418 220.092 74.9206C259.378 91.0993 272.104 76.9429 283.17 65.82C294.236 54.6971 300.323 64.8088 324.669 60.2586C349.014 55.7083 347.908 38.5184 380 52.1692" stroke="white" stroke-opacity="0.12" stroke-width="8"/>
<path d="M-4 89.82C13.7061 104.819 60.1844 130.874 104.45 115.099C159.781 95.3815 180.807 82.7418 220.092 98.9206C259.378 115.099 272.104 100.943 283.17 89.82C294.236 78.6971 300.323 88.8088 324.669 84.2586C349.014 79.7083 347.908 62.5184 380 76.1692" stroke="white" stroke-opacity="0.12" stroke-width="14"/>
<path d="M-4 48.82C13.7061 63.8191 60.1844 89.8736 104.45 74.0993C159.781 54.3815 180.807 41.7418 220.092 57.9206C259.378 74.0993 272.104 59.9429 283.17 48.82C294.236 37.6971 300.323 47.8088 324.669 43.2586C349.014 38.7083 347.908 21.5184 380 35.1692" stroke="white" stroke-opacity="0.12" stroke-width="4"/>
<path d="M-4 33.82C13.7061 48.8191 60.1844 74.8736 104.45 59.0993C159.781 39.3815 180.807 26.7418 220.092 42.9206C259.378 59.0993 272.104 44.9429 283.17 33.82C294.236 22.6971 300.323 32.8088 324.669 28.2586C349.014 23.7083 347.908 6.5184 380 20.1692" stroke="white" stroke-opacity="0.12" stroke-width="2"/>
<path d="M-4 19.82C13.7061 34.8191 60.1844 60.8736 104.45 45.0993C159.781 25.3815 180.807 12.7418 220.092 28.9206C259.378 45.0993 272.104 30.9429 283.17 19.82C294.236 8.69713 300.323 18.8088 324.669 14.2586C349.014 9.70831 347.908 -7.4816 380 6.16921" stroke="white" stroke-opacity="0.12"/>
</svg>
