<svg width="47" height="106" viewBox="0 0 47 106" fill="none" xmlns="http://www.w3.org/2000/svg">
<path d="M24.1872 18.447C19.2047 17.9553 18.7649 16.2315 18.404 10.5711L17.9331 1.59988L17.2644 10.5924C16.9241 16.6073 15.6245 18.0039 11.363 18.6216L6.00964 19.192L11.2923 19.5618C15.8988 19.96 16.9662 21.6749 17.2523 27.5268L17.5413 36.5025L18.132 27.4339C18.5657 20.9892 19.7404 20.0352 24.2273 19.4872L29.4621 18.8986L24.1872 18.447Z" fill="#373737"/>
<path d="M38.1872 85.447C33.2047 84.9553 32.7649 83.2315 32.404 77.5711L31.9331 68.5999L31.2644 77.5924C30.9241 83.6073 29.6245 85.0039 25.363 85.6216L20.0096 86.192L25.2923 86.5618C29.8988 86.96 30.9662 88.6749 31.2523 94.5268L31.5413 103.502L32.132 94.4339C32.5657 87.9892 33.7404 87.0352 38.2273 86.4872L43.4621 85.8986L38.1872 85.447Z" fill="#373737"/>
<path d="M7.77689 30.7715C5.94803 30.591 5.78661 29.9582 5.65413 27.8805L5.48127 24.5876L5.23583 27.8884C5.11092 30.0962 4.6339 30.6088 3.0697 30.8355L1.10471 31.0449L3.04375 31.1806C4.73459 31.3268 5.12637 31.9563 5.2314 34.1043L5.33747 37.3988L5.55431 34.0702C5.71349 31.7046 6.14468 31.3544 7.7916 31.1533L9.71308 30.9372L7.77689 30.7715Z" fill="#373737"/>
</svg>
