<svg xmlns="http://www.w3.org/2000/svg" width="24" height="24" viewBox="0 0 24 24"><g><g><g><path fill="#fff" d="M0 4a4 4 0 0 1 4-4h16a4 4 0 0 1 4 4v16a4 4 0 0 1-4 4H4a4 4 0 0 1-4-4z"/></g><g><path fill="#0073b3" d="M9.255 12.446c0-1.911-.012-3.05-.035-3.417h3.857v1.632l-.017.034h.017v-.034c.834-1.271 1.998-1.906 3.492-1.906 1.333 0 2.404.437 3.215 1.313.81.876 1.216 2.161 1.216 3.855V20.5h-3.857v-6.13c0-1.729-.649-2.593-1.946-2.593-.498 0-.912.134-1.242.403-.33.27-.577.598-.739.988-.092.217-.139.526-.139.927V20.5H9.22c.023-3.457.035-6.142.035-8.054zM3.225 20.5V9.03h3.848V20.5zM3 5.475c0-.573.203-1.045.608-1.417.406-.372.933-.558 1.581-.558.637 0 1.153.183 1.547.55.405.377.608.87.608 1.476 0 .55-.197 1.008-.591 1.374-.405.378-.938.567-1.599.567h-.017c-.637 0-1.152-.19-1.546-.567C3.197 6.522 3 6.047 3 5.475z"/></g></g></g></svg>