<svg id="Capa_1" enable-background="new 0 0 512 512" height="512" viewBox="0 0 512 512" width="512" xmlns="http://www.w3.org/2000/svg"><g><g><path d="m432.355 504.5h-352.71c-8.854 0-16.032-7.178-16.032-16.032v-272.549h384.774v272.548c0 8.855-7.178 16.033-16.032 16.033z" fill="#ffe07d"/><path d="m284.341 51.873c-15.653-15.653-41.03-15.653-56.682 0l-164.046 164.046 164.046 164.046c15.653 15.653 41.03 15.653 56.682 0l164.046-164.046z" fill="#ffc250"/><path d="m400.29 7.5h-288.58c-4.427 0-8.016 3.589-8.016 8.016v240.484l164.306 125.5 140.306-159.51v-206.474c0-4.427-3.589-8.016-8.016-8.016z" fill="#eceaec"/><path d="m408.306 221.99-5.669 5.669-97.294 97.294c-.427.427-.913.517-1.247.517s-.82-.09-1.248-.517c-11.6-11.6-26.151-18.71-40.982-20.026-1.966-.175-3.924-.261-5.867-.261-17.129 0-33.233 6.67-45.346 18.782l-1.504 1.504c-.427.427-.913.516-1.247.516s-.82-.09-1.247-.516l-74.219-74.219c-3.029-3.028-4.696-7.054-4.696-11.337v-231.896h-16.03c-4.427 0-8.016 3.589-8.016 8.016v240.484l123.965 123.965c15.653 15.653 41.03 15.653 56.682 0l123.965-123.965z" fill="#dad8db"/><path d="m264.973 94.181 16.946 52.154h54.838c9.14 0 12.94 11.695 5.546 17.068l-44.365 32.233 16.946 52.154c2.824 8.692-7.124 15.921-14.519 10.548l-44.365-32.233-44.365 32.233c-7.394 5.372-17.343-1.856-14.519-10.548l16.946-52.154-44.365-32.233c-7.394-5.372-3.594-17.068 5.546-17.068h54.838l16.946-52.154c2.824-8.693 15.122-8.693 17.946 0z" fill="#ffd064"/><path d="m284.341 340.454c-15.653-15.653-41.03-15.653-56.682 0l-159.35 159.35c2.901 2.901 6.909 4.696 11.336 4.696h352.71c4.427 0 8.435-1.795 11.336-4.696z" fill="#ffd064"/><path d="m175.243 146.335c-9.14 0-12.94 11.695-5.546 17.068l44.365 32.233-16.946 52.154c-2.824 8.692 7.125 15.921 14.519 10.549l44.365-32.234 44.365 32.233c7.394 5.372 17.343-1.856 14.518-10.549l-16.946-52.154c-75.632 14.452-67.857-49.301-67.857-49.301h-54.837z" fill="#ffc250"/></g><g><path d="m165.289 169.47 39.957 29.03-15.262 46.972c-2.31 7.108.104 14.54 6.151 18.934 3.024 2.197 6.489 3.295 9.955 3.295 3.465 0 6.931-1.099 9.954-3.295l39.956-29.031 39.957 29.031c6.047 4.393 13.861 4.393 19.908 0s8.461-11.825 6.152-18.934l-15.263-46.972 39.957-29.03c6.046-4.394 8.461-11.825 6.151-18.934s-8.632-11.701-16.106-11.701h-49.389l-15.262-46.972c-2.31-7.108-8.631-11.702-16.105-11.702-7.474 0-13.796 4.594-16.106 11.702l-15.262 46.972h-49.389c-7.474 0-13.796 4.593-16.106 11.701s.105 14.54 6.152 18.934zm8.114-14.298c.289-.888.908-1.337 1.84-1.337h54.838c3.249 0 6.129-2.093 7.133-5.183l16.946-52.154c.289-.887.908-1.337 1.841-1.337s1.551.45 1.84 1.337l16.946 52.154c1.004 3.09 3.884 5.183 7.133 5.183h54.838c.933 0 1.552.449 1.84 1.337.288.887.052 1.615-.703 2.163l-44.365 32.232c-2.629 1.91-3.729 5.295-2.725 8.386l16.946 52.154c.288.887.052 1.615-.703 2.163-.754.548-1.52.548-2.275 0l-44.365-32.233c-1.314-.955-2.861-1.433-4.408-1.433s-3.094.478-4.408 1.433l-44.365 32.233c-.755.548-1.52.548-2.275 0-.754-.548-.991-1.276-.703-2.163l16.946-52.154c1.004-3.09-.096-6.476-2.725-8.386l-44.365-32.232c-.754-.548-.99-1.276-.702-2.163z"/><path d="m453.69 210.616-37.884-37.884v-157.216c.001-8.556-6.96-15.516-15.515-15.516h-288.582c-8.556 0-15.516 6.96-15.516 15.516v157.216l-37.883 37.884c-1.407 1.406-2.197 3.314-2.197 5.303v272.548c0 12.976 10.557 23.532 23.532 23.532h352.71c12.976 0 23.532-10.556 23.532-23.532v-272.548c0-1.988-.79-3.897-2.197-5.303zm-12.803 275.778-126.184-126.185 126.184-126.184zm-10.606 10.606h-348.562l151.242-151.243c12.703-12.703 33.373-12.703 46.076 0zm-318.572-482h288.581c.285 0 .516.231.516.516v192.387c0 4.142 3.358 7.5 7.5 7.5s7.5-3.358 7.5-7.5v-13.958l21.974 21.974-133.683 133.684-14.452-14.452c-18.552-18.552-48.737-18.552-67.289 0l-151.243 151.243v-252.368l108.126 108.125c1.464 1.465 3.384 2.197 5.303 2.197s3.839-.732 5.303-2.197c2.929-2.929 2.929-7.677 0-10.606l-78.652-78.651v-237.378c0-.285.232-.516.516-.516zm-15.516 178.945v43.948l-21.974-21.974z"/></g></g></svg>