<svg width="25" height="24" viewBox="0 0 25 24" fill="none" xmlns="http://www.w3.org/2000/svg">
<path d="M15.914 5.00078H21.508C22.056 5.00078 22.5 5.44578 22.5 6.00078V20.0008C22.5 20.5528 22.045 21.0008 21.508 21.0008H3.49202C3.36115 21.0005 3.23161 20.9744 3.11085 20.924C2.9901 20.8735 2.88049 20.7997 2.78832 20.7068C2.69615 20.6139 2.62324 20.5037 2.57376 20.3826C2.52429 20.2614 2.49923 20.1317 2.50002 20.0008V6.00078C2.50002 5.44878 2.95502 5.00078 3.49202 5.00078H9.08602L6.55002 2.46478L7.96402 1.05078L11.914 5.00078H13.086L17.036 1.05078L18.45 2.46478L15.914 5.00078Z" fill="#D5BBFF"/>
</svg>
