<?xml version="1.0" encoding="UTF-8"?>
<svg xmlns="http://www.w3.org/2000/svg" xmlns:xlink="http://www.w3.org/1999/xlink" viewBox="0 0 706.46 736.8">
  <defs>
    <style>
      .cls-1 {
        fill: #882ee8;
      }

      .cls-1, .cls-2, .cls-3, .cls-4, .cls-5, .cls-6, .cls-7, .cls-8, .cls-9, .cls-10, .cls-11, .cls-12, .cls-13 {
        stroke-linejoin: round;
      }

      .cls-1, .cls-2, .cls-3, .cls-4, .cls-6, .cls-8, .cls-9, .cls-10, .cls-11 {
        stroke: #000;
      }

      .cls-14 {
        clip-path: url(#clippath-2);
      }

      .cls-14, .cls-7, .cls-15, .cls-13 {
        fill: none;
      }

      .cls-2 {
        fill: #d3d3d3;
      }

      .cls-3 {
        fill: #6522bc;
      }

      .cls-16 {
        isolation: isolate;
      }

      .cls-4 {
        fill: #f9f9f9;
      }

      .cls-5, .cls-7, .cls-12, .cls-13 {
        stroke: #141414;
      }

      .cls-5, .cls-8, .cls-12, .cls-17 {
        fill: #f9ed32;
      }

      .cls-5, .cls-13 {
        stroke-width: 1.43px;
      }

      .cls-6 {
        fill: #be92ed;
      }

      .cls-7, .cls-12 {
        stroke-width: 1.01px;
      }

      .cls-18 {
        clip-path: url(#clippath-6);
      }

      .cls-19 {
        clip-path: url(#clippath-7);
      }

      .cls-20 {
        clip-path: url(#clippath-1);
      }

      .cls-21 {
        clip-path: url(#clippath-4);
      }

      .cls-22 {
        fill: #fff;
        mix-blend-mode: soft-light;
      }

      .cls-9 {
        fill: #fff48f;
      }

      .cls-10 {
        fill: #d6c52b;
      }

      .cls-11 {
        fill: #e6e7e8;
      }

      .cls-23 {
        clip-path: url(#clippath);
      }

      .cls-24 {
        clip-path: url(#clippath-3);
      }

      .cls-25 {
        clip-path: url(#clippath-5);
      }
    </style>
    <clipPath id="clippath">
      <path class="cls-12" d="M243.01,148.69c-101.51,10.9-110.35,19.74-121.25,121.25-10.9-101.51-19.74-110.35-121.25-121.25,101.51-10.9,110.35-19.74,121.25-121.25,10.9,101.51,19.74,110.35,121.25,121.25Z"/>
    </clipPath>
    <clipPath id="clippath-1">
      <path class="cls-5" d="M705.75,494.95c-108.8,11.68-118.27,21.16-129.96,129.96-11.68-108.8-21.16-118.27-129.96-129.96,108.8-11.68,118.27-21.16,129.96-129.96,11.68,108.8,21.16,118.27,129.96,129.96Z"/>
    </clipPath>
    <clipPath id="clippath-2">
      <path class="cls-15" d="M114.2,494.56c14.24,1.7,32.46-2.11,54.7-11.46,24.12-10.13,43.59-22.9,58.43-38.32,10.8-11.22,20.26-23.2,28.41-35.91,3.71,2.32,8.55,3.65,14.52,4.01,.53,.78,1.09,1.54,1.69,2.27,4.54,5.57,12.38,8.25,23.53,8.05,11.13-.2,26.88-4.57,47.22-13.12,17.02-7.15,33.2-15.87,48.55-26.17,15.34-10.29,28.19-21.66,38.54-34.13h0s0,0,0,0l-7.16-7.88-14.4-7.1h0l-6.35-3.13c-3.3,3.53-6.71,7.09-10.24,10.71-.53,.55-1.07,1.06-1.61,1.56-.09-1.91-.14-3.98-.15-6.22l-1.12-171.19c-.14-22.14-1.68-39.65-4.61-52.5-2.93-12.86-9.39-21.88-19.38-27.08-4.11-2.08-8.46-3.67-13.03-4.8-2.29-2.12-4.85-3.94-7.72-5.43-14.27-7.23-31.35-8.7-51.24-4.41-19.89,4.3-41.43,11.32-64.59,21.06-21.76,9.14-42.55,19.48-62.39,31.02s-36.83,23.91-50.97,37.11c-14.61,13.83-25.55,26.86-32.82,39.09-7.28,12.25-10.86,24.96-10.78,38.15,.1,15.76,5.39,26.78,15.87,33.04,3.87,2.32,8.33,3.67,13.36,4.04,2.08,2.41,4.54,4.48,7.39,6.19,10.47,6.28,25.16,5.44,44.08-2.51,17.97-7.55,33.54-19,46.72-34.36,13.17-15.35,19.71-31.55,19.6-48.59-.08-11.92-3.94-21.29-11.56-28.13-4.52-4.04-10.62-6.62-18.28-7.77-.77-.85-1.59-1.67-2.47-2.45-2.32-2.07-5.07-3.75-8.23-5.06,3.3-2.93,6.85-5.73,10.68-8.41,6.84-4.79,14.05-8.78,21.62-11.97,8.91-3.75,16.43-5.72,22.56-5.94,1.36,1.86,2.48,3.92,3.35,6.21,2.65,7,4,13.91,4.05,20.72l.37,56.85c.06,9.8-4.38,19.68-13.32,29.62-8.95,9.95-20.62,20.19-35.01,30.72-14.4,10.53-29.62,21.52-45.66,32.96-16.05,11.45-31.26,23.71-45.64,36.79-14.38,13.09-26.03,27.17-34.93,42.22-8.91,15.06-13.31,31.53-13.19,49.42,.09,13.63,3.37,25.28,9.83,34.94,5.64,8.43,14.23,13.83,25.78,16.2,6.36,6.07,15.03,9.76,26.02,11.08Z"/>
    </clipPath>
    <clipPath id="clippath-3">
      <path class="cls-14" d="M199.48,374.81c-.07-11.07,1.39-21.4,4.42-31,3.02-9.59,6.99-18.63,11.91-27.1,4.92-8.47,10.21-16.67,15.84-24.59,3.08-4.32,6.11-8.58,9.11-12.81l.6,92.26c-4.23,6.05-8.36,10.67-12.36,13.84-4.01,3.19-8.62,5.86-13.82,8.05-4.32,1.81-8.33,2.92-12.04,3.34-2.39-5.2-3.62-12.52-3.68-21.99Z"/>
    </clipPath>
    <clipPath id="clippath-4">
      <polygon class="cls-15" points="561.84 70.84 561.84 .5 501.32 3.06 431.02 31.82 431.02 102.49 495.16 102.49 561.84 70.84"/>
    </clipPath>
    <clipPath id="clippath-5">
      <polygon class="cls-15" points="561.84 187.71 561.84 117.37 501.32 119.92 431.02 148.69 431.02 219.36 495.16 219.36 561.84 187.71"/>
    </clipPath>
    <clipPath id="clippath-6">
      <polygon class="cls-15" points="561.84 304.58 561.84 234.24 501.32 236.79 431.02 265.56 431.02 336.23 495.16 336.23 561.84 304.58"/>
    </clipPath>
    <clipPath id="clippath-7">
      <polygon class="cls-15" points="562.55 311.4 69.69 549.25 69.69 734.71 121.76 736.3 622.28 498.45 622.28 311.4 562.55 311.4"/>
    </clipPath>
  </defs>
  <g class="cls-16">
    <g id="Layer_2" data-name="Layer 2">
      <g id="Layer_1-2" data-name="Layer 1">
        <g>
          <g>
            <path class="cls-17" d="M243.01,148.69c-101.51,10.9-110.35,19.74-121.25,121.25-10.9-101.51-19.74-110.35-121.25-121.25,101.51-10.9,110.35-19.74,121.25-121.25,10.9,101.51,19.74,110.35,121.25,121.25Z"/>
            <g class="cls-23">
              <circle class="cls-22" cx="190.37" cy="103.32" r="81.34"/>
            </g>
            <path class="cls-7" d="M243.01,148.69c-101.51,10.9-110.35,19.74-121.25,121.25-10.9-101.51-19.74-110.35-121.25-121.25,101.51-10.9,110.35-19.74,121.25-121.25,10.9,101.51,19.74,110.35,121.25,121.25Z"/>
          </g>
          <g>
            <path class="cls-8" d="M429.78,349.77l-7.16-7.88-14.4-7.1h0s0,0,0,0l-6.35-3.13,1.4,1.54-1.4-1.54c-3.3,3.53-6.71,7.09-10.24,10.71-3.53,3.63-7.19,6.23-10.97,7.81-4.26,1.79-7.23,1.11-8.9-2.02-1.69-3.13-2.55-10.03-2.62-20.67l-1.12-171.19c-.14-22.14-1.68-39.65-4.61-52.5-2.93-12.86-9.39-21.88-19.38-27.08-14.27-7.23-31.35-8.7-51.24-4.41-19.89,4.3-41.43,11.32-64.59,21.06-21.76,9.14-42.55,19.48-62.39,31.02s-36.83,23.91-50.97,37.11c-14.61,13.83-25.55,26.86-32.82,39.09-7.28,12.25-10.86,24.96-10.78,38.15,.1,15.76,5.39,26.78,15.87,33.04,10.47,6.28,25.16,5.44,44.08-2.51,17.97-7.55,33.54-19,46.72-34.36,13.17-15.35,19.71-31.55,19.6-48.59-.08-11.92-3.94-21.29-11.56-28.13-4.16-3.72-9.66-6.2-16.48-7.47h0s57.51-29.45,57.51-29.45c4.08,2.94,7.07,6.84,8.94,11.76,2.65,7,4,13.91,4.05,20.72l.37,56.85c.06,9.8-4.38,19.68-13.32,29.62-8.95,9.95-20.62,20.19-35.01,30.72-14.4,10.53-29.62,21.52-45.66,32.96-16.05,11.45-31.26,23.71-45.64,36.79-14.38,13.09-26.03,27.17-34.93,42.22-8.91,15.06-13.31,31.53-13.19,49.42,.09,13.63,3.37,25.28,9.83,34.94,6.47,9.67,16.82,15.35,31.05,17.05,14.24,1.7,32.46-2.11,54.7-11.46,24.12-10.13,43.59-22.9,58.43-38.32,7.81-8.11,14.9-16.62,21.33-25.51l11.23,4.63,12.45-8.32c4.59,5.26,12.29,7.8,23.14,7.61,11.13-.2,26.88-4.57,47.22-13.12,17.02-7.15,33.2-15.87,48.55-26.17,4.68-3.14,9.1-6.39,13.31-9.73l10.84,7.48,27.76-21.65-.8-4.03,8.17,4.03Zm-200.76,35.63c-4.01,3.19-8.62,5.86-13.82,8.05-10.41,4.37-19.06,4.71-25.96,.98-6.9-3.71-10.4-13.66-10.51-29.85-.07-11.07,1.39-21.4,4.42-31,3.02-9.59,6.99-18.63,11.91-27.1,.42-.73,.86-1.44,1.29-2.16l44.38-29.2,.63,96.45c-4.23,6.05-8.36,10.67-12.36,13.84Z"/>
            <path class="cls-1" d="M168.89,483.1c-22.23,9.34-40.46,13.16-54.7,11.46-14.24-1.7-24.59-7.38-31.05-17.05-6.46-9.66-9.74-21.31-9.83-34.94-.12-17.89,4.28-34.35,13.19-49.42,8.9-15.05,20.55-29.13,34.93-42.22,14.37-13.09,29.59-25.34,45.64-36.79,16.04-11.43,31.26-22.42,45.66-32.96,14.39-10.53,26.06-20.77,35.01-30.72,8.94-9.94,13.39-19.82,13.32-29.62l-.37-56.85c-.04-6.81-1.4-13.71-4.05-20.72-2.66-6.99-7.55-11.98-14.68-14.97-7.13-2.98-17.79-1.49-31.98,4.47-7.57,3.18-14.78,7.17-21.62,11.97-6.85,4.8-12.86,10-18.04,15.59,16.58-1.41,28.69,1.29,36.33,8.11,7.62,6.83,11.49,16.21,11.56,28.13,.11,17.04-6.43,33.24-19.6,48.59-13.18,15.37-28.76,26.81-46.72,34.36-18.92,7.95-33.62,8.79-44.08,2.51-10.48-6.27-15.76-17.28-15.87-33.04-.09-13.19,3.5-25.91,10.78-38.15,7.27-12.23,18.21-25.27,32.82-39.09,14.14-13.2,31.13-25.57,50.97-37.11,19.84-11.54,40.63-21.88,62.39-31.02,23.16-9.73,44.7-16.75,64.59-21.06,19.89-4.29,36.97-2.83,51.24,4.41,9.99,5.2,16.45,14.22,19.38,27.08,2.93,12.86,4.47,30.37,4.61,52.5l1.12,171.19c.07,10.65,.94,17.54,2.62,20.67,1.68,3.14,4.65,3.81,8.9,2.02,3.78-1.59,7.44-4.19,10.97-7.81,3.53-3.62,6.94-7.18,10.24-10.71l7.16,7.88c-10.35,12.47-23.2,23.84-38.54,34.13-15.35,10.29-31.53,19.01-48.55,26.17-20.34,8.55-36.08,12.92-47.22,13.12-11.15,.2-18.99-2.48-23.53-8.05-4.55-5.55-7.08-12.5-7.61-20.82-9.84,18.22-22.18,35.05-37.01,50.46-14.84,15.42-34.31,28.19-58.43,38.32Zm67.05-79.42c5.2-2.18,9.8-4.86,13.82-8.05,4-3.17,8.13-7.79,12.36-13.84l-.88-134.78c-3.28,6.93-7.62,14.2-13.02,21.8-5.41,7.62-10.92,15.38-16.56,23.29-5.64,7.92-10.92,16.12-15.84,24.59-4.92,8.47-8.9,17.51-11.91,27.1-3.03,9.6-4.49,19.93-4.42,31,.11,16.19,3.61,26.14,10.51,29.85,6.89,3.73,15.55,3.4,25.96-.98Z"/>
            <polygon class="cls-1" points="561.84 70.84 495.16 102.49 495.16 32.15 561.84 .5 561.84 70.84"/>
            <polyline class="cls-3" points="431.02 31.82 495.16 32.15 495.16 102.49 431.02 102.49 431.02 31.82"/>
            <polygon class="cls-6" points="501.32 3.06 431.02 31.82 495.16 32.15 561.84 .5 501.32 3.06"/>
            <polygon class="cls-8" points="561.84 187.71 495.16 219.36 495.16 149.02 561.84 117.37 561.84 187.71"/>
            <polyline class="cls-10" points="431.02 148.69 495.16 149.02 495.16 219.36 431.02 219.36 431.02 148.69"/>
            <polygon class="cls-9" points="501.32 119.92 431.02 148.69 495.16 149.02 561.84 117.37 501.32 119.92"/>
            <polygon class="cls-11" points="561.84 304.58 495.16 336.23 495.16 265.89 561.84 234.24 561.84 304.58"/>
            <polyline class="cls-2" points="431.02 265.56 495.16 265.89 495.16 336.23 431.02 336.23 431.02 265.56"/>
            <polygon class="cls-4" points="501.32 236.79 431.02 265.56 495.16 265.89 561.84 234.24 501.32 236.79"/>
            <polygon class="cls-1" points="622.28 498.45 121.76 736.3 121.76 549.25 622.28 311.4 622.28 498.45"/>
            <polyline class="cls-8" points="622.28 311.4 562.55 311.4 69.69 549.25 121.76 550.84"/>
            <polygon class="cls-11" points="121.76 736.3 69.69 734.71 69.69 549.25 121.76 550.84 121.76 736.3"/>
          </g>
          <g>
            <path class="cls-17" d="M705.75,494.95c-108.8,11.68-118.27,21.16-129.96,129.96-11.68-108.8-21.16-118.27-129.96-129.96,108.8-11.68,118.27-21.16,129.96-129.96,11.68,108.8,21.16,118.27,129.96,129.96Z"/>
            <g class="cls-20">
              <circle class="cls-22" cx="516.77" cy="426.81" r="87.18"/>
            </g>
            <path class="cls-13" d="M705.75,494.95c-108.8,11.68-118.27,21.16-129.96,129.96-11.68-108.8-21.16-118.27-129.96-129.96,108.8-11.68,118.27-21.16,129.96-129.96,11.68,108.8,21.16,118.27,129.96,129.96Z"/>
          </g>
          <g>
            <g class="cls-24">
              <polygon class="cls-22" points="-18.85 190.52 271.06 756.68 413.66 689.31 110.25 117.37 -18.85 190.52"/>
              <polygon class="cls-22" points="369.22 -82.05 659.13 484.12 801.72 416.74 498.31 -155.2 369.22 -82.05"/>
            </g>
            <g class="cls-21">
              <polygon class="cls-22" points="-18.85 190.52 271.06 756.68 413.66 689.31 110.25 117.37 -18.85 190.52"/>
              <polygon class="cls-22" points="369.22 -82.05 659.13 484.12 801.72 416.74 498.31 -155.2 369.22 -82.05"/>
            </g>
            <g class="cls-25">
              <polygon class="cls-22" points="-18.85 190.52 271.06 756.68 413.66 689.31 110.25 117.37 -18.85 190.52"/>
              <polygon class="cls-22" points="369.22 -82.05 659.13 484.12 801.72 416.74 498.31 -155.2 369.22 -82.05"/>
            </g>
            <g class="cls-18">
              <polygon class="cls-22" points="-18.85 190.52 271.06 756.68 413.66 689.31 110.25 117.37 -18.85 190.52"/>
              <polygon class="cls-22" points="369.22 -82.05 659.13 484.12 801.72 416.74 498.31 -155.2 369.22 -82.05"/>
            </g>
            <g class="cls-19">
              <polygon class="cls-22" points="-18.85 190.52 271.06 756.68 413.66 689.31 110.25 117.37 -18.85 190.52"/>
            </g>
          </g>
        </g>
      </g>
    </g>
  </g>
</svg>