<?xml version="1.0" encoding="UTF-8"?>
<svg xmlns="http://www.w3.org/2000/svg" xmlns:xlink="http://www.w3.org/1999/xlink" viewBox="0 0 997.87 753.33">
  <defs>
    <style>
      .cls-1 {
        isolation: isolate;
      }

      .cls-2, .cls-3, .cls-4, .cls-5, .cls-6 {
        stroke: #141414;
        stroke-linejoin: round;
      }

      .cls-2, .cls-5, .cls-7 {
        fill: #f9ed32;
      }

      .cls-2, .cls-6 {
        stroke-width: 1.43px;
      }

      .cls-3, .cls-4, .cls-6 {
        fill: none;
      }

      .cls-3, .cls-5 {
        stroke-width: 1.01px;
      }

      .cls-8 {
        clip-path: url(#clippath-1);
      }

      .cls-9 {
        fill: #fff;
        mix-blend-mode: soft-light;
      }

      .cls-4 {
        stroke-width: 1.24px;
      }

      .cls-10 {
        fill: #141414;
        opacity: .17;
      }

      .cls-11 {
        clip-path: url(#clippath);
      }

      .cls-12 {
        fill: #e6e7e8;
      }

      .cls-13 {
        fill: #882ee8;
      }

      .cls-14 {
        fill: #be92ed;
      }
    </style>
    <clipPath id="clippath">
      <path class="cls-5" d="M997.36,403.03c-86.59,9.3-94.13,16.84-103.43,103.43-9.3-86.59-16.84-94.13-103.43-103.43,86.59-9.3,94.13-16.84,103.43-103.43,9.3,86.59,16.84,94.13,103.43,103.43Z"/>
    </clipPath>
    <clipPath id="clippath-1">
      <path class="cls-2" d="M294.91,253.3c-123.15,13.22-133.87,23.95-147.1,147.1-13.22-123.15-23.95-133.87-147.1-147.1,123.15-13.22,133.87-23.95,147.1-147.1,13.22,123.15,23.95,133.87,147.1,147.1Z"/>
    </clipPath>
  </defs>
  <g class="cls-1">
    <g id="Layer_2" data-name="Layer 2">
      <g id="Layer_1-2" data-name="Layer 1">
        <g>
          <g>
            <path class="cls-7" d="M997.36,403.03c-86.59,9.3-94.13,16.84-103.43,103.43-9.3-86.59-16.84-94.13-103.43-103.43,86.59-9.3,94.13-16.84,103.43-103.43,9.3,86.59,16.84,94.13,103.43,103.43Z"/>
            <g class="cls-11">
              <circle class="cls-9" cx="952.46" cy="364.33" r="69.38"/>
            </g>
            <path class="cls-3" d="M997.36,403.03c-86.59,9.3-94.13,16.84-103.43,103.43-9.3-86.59-16.84-94.13-103.43-103.43,86.59-9.3,94.13-16.84,103.43-103.43,9.3,86.59,16.84,94.13,103.43,103.43Z"/>
          </g>
          <g>
            <g>
              <path class="cls-13" d="M893.94,73.3l-43.19,427.66L218.73,752.71l-54.77-470.84L893.94,73.3Zm-261.64,425.65l67.46-18.72-197.11-54.44c63.44-19.46,114.7-54.18,109.15-88.07l47.71-13.24,16.34-25.97-74.03,20.54c-4.92-7.04-14.76-12.7-27.18-15.78l67.47-18.7,16.34-25.97-253.4,70.26-16.34,25.97,42.78-11.85c44.43-12.32,86.28-22.06,111.08-7.49l-120.11,33.31-16.34,25.97,149.73-41.52,.37,.83c6.16,14.15-7.44,42.16-83.14,63.15l-37.84,10.49,7.98,18.31,189.08,52.94Z"/>
              <polygon class="cls-13" points="893.94 73.3 163.96 281.87 147.81 261.48 147.81 261.47 863.37 54.02 893.94 73.3"/>
              <path class="cls-14" d="M812.45,21.87l50.92,32.14L147.81,261.47l-37.8-47.71h0c.35-.62,.74-.47,1.92-.85,3.18-1.08,6.54-1.78,9.77-2.68,5.67-1.55,11.35-3.08,17.02-4.63,7.82-2.14,15.64-4.27,23.47-6.4,9.72-2.65,19.45-5.3,29.16-7.95,11.37-3.1,22.73-6.19,34.09-9.29,12.72-3.47,25.43-6.95,38.15-10.4l11.61,2.27-84.54,24.84,24.57,30.2,119.38-35.1-27.62-29.27-8.13,2.39,3.18-5.81v-.02c31.66-8.51,71.51-20.2,103.06-28.87l.78,7.51,11.82,8.89,21.07-4.21-1.76-20.31c45.94-12.68,94.09-25.97,141.83-38.91h.01l.95,9.18,13.46,6.97,21.29-5.85-.52-19.78c21.43-5.75,42.63-11.37,63.38-16.77h0s20.92,3.79,20.92,3.79l-14.73,4.43,33.94,23.18,90.82-27.39-33.7-23.18-57.83,17.39-1.34-8.61,.58-.09c32.08-9.01,63.98-18.72,96.37-26.53Z"/>
              <path class="cls-13" d="M785.43,4.83l27.02,17.04c-32.39,7.82-64.29,17.53-96.37,26.53l-.58,.09-.02-.17-12.47-7.93,9.85-2.76-13.28-9.95,85.86-22.85Z"/>
              <path class="cls-7" d="M808.37,62.89l-90.82,27.39-33.94-23.18,14.73-4.43,21.27,14.96,14.91-4.32-17.69-16.2,57.83-17.39,33.7,23.18Zm-33-.94l15.33-5.26-15.22-11.23-14.27,4.92,14.16,11.58Zm-22.01,7.37l12.41-3.51-15.68-11.79-9.95,3.6,13.22,11.69Z"/>
              <polygon class="cls-12" points="790.71 56.68 775.37 61.95 761.22 50.36 775.49 45.45 790.71 56.68"/>
              <polygon class="cls-12" points="765.77 65.81 753.36 69.32 740.15 57.62 750.09 54.02 765.77 65.81"/>
              <polygon class="cls-12" points="698.34 62.66 677.42 58.86 677.06 58.8 664.98 51.05 703 40.39 715.47 48.32 715.5 48.49 716.84 57.1 734.52 73.3 719.61 77.63 698.34 62.66"/>
              <polygon class="cls-7" points="712.85 37.63 703 40.39 664.98 51.05 654.38 54.02 642.73 42.82 699.57 27.68 712.85 37.63"/>
              <path class="cls-7" d="M699.75,480.24l-67.46,18.72-189.08-52.94-7.98-18.31,37.84-10.49c75.69-20.98,89.29-49,83.14-63.15l-.37-.83-149.73,41.52,16.34-25.97,120.11-33.31c-24.8-14.57-66.65-4.83-111.08,7.49l-42.78,11.85,16.34-25.97,253.4-70.26-16.34,25.97-67.47,18.7c12.41,3.08,22.26,8.74,27.18,15.78l74.03-20.54-16.34,25.97-47.71,13.24c5.55,33.89-45.71,68.61-109.15,88.07l197.11,54.44Z"/>
              <path class="cls-13" d="M677.42,58.86h0c-20.75,5.41-41.95,11.04-63.38,16.78l-.66-25.02,29.34-7.8,11.66,11.2,10.6-2.97,12.08,7.75,.36,.06Z"/>
              <polygon class="cls-7" points="614.04 75.64 614.56 95.43 593.27 101.27 586.94 45.1 574.98 48.2 433.62 84.89 434.77 98.16 437.01 124.03 438.77 144.34 417.7 148.55 408.81 58.2 612.22 6.7 613.38 50.62 614.04 75.64"/>
              <polygon class="cls-7" points="612.22 6.7 408.81 58.2 396.75 51.53 596.88 .62 612.22 6.7"/>
              <polygon class="cls-7" points="586.94 45.1 593.27 101.27 579.8 94.3 578.85 85.12 576.27 60.5 574.98 48.2 586.94 45.1"/>
              <path class="cls-13" d="M576.27,60.5l2.58,24.62h-.01c-47.74,12.93-95.88,26.22-141.83,38.91l-2.24-25.86,141.5-37.67Z"/>
              <polygon class="cls-7" points="408.81 58.2 417.7 148.55 405.88 139.66 405.1 132.15 402.48 106.76 396.75 51.53 408.81 58.2"/>
              <path class="cls-13" d="M402.48,106.76l2.63,25.39c-31.55,8.67-71.4,20.36-103.07,28.87l-6.35-9.31,11.36-3.16-11.26-13.4,106.7-28.39Z"/>
              <path class="cls-7" d="M306.99,164.47l27.62,29.27-119.38,35.1-24.57-30.2,84.54-24.84,17.63,18.69,22.3-7.54-16.25-18.1,8.13-2.39Zm-36.52,34.17l-10.42-13.1-10.42,3.39,9.71,12.99,11.12-3.28Zm-28.09,8.91l-11-13.12-24.29,7.68,10.01,12.92,25.28-7.48Z"/>
              <polygon class="cls-12" points="263.59 171.54 257.33 162.38 295.68 151.71 302.03 161.03 302.05 161.05 298.86 166.86 315.11 184.96 292.82 192.5 275.19 173.81 263.59 171.54"/>
              <polygon class="cls-7" points="295.78 135.15 307.04 148.55 295.68 151.71 257.33 162.38 236.11 168.27 227.06 153.44 295.78 135.15"/>
              <polygon class="cls-12" points="260.06 185.54 270.47 198.64 259.35 201.93 249.64 188.93 260.06 185.54"/>
              <path class="cls-13" d="M257.33,162.38l6.26,9.17c-12.72,3.46-25.43,6.94-38.15,10.4-11.36,3.1-22.72,6.19-34.09,9.29-9.71,2.65-19.43,5.3-29.16,7.95-7.83,2.13-15.66,4.26-23.47,6.4-5.67,1.55-11.35,3.08-17.02,4.63-3.23,.89-6.59,1.6-9.77,2.68-1.18,.38-1.57,.24-1.92,.84l-19.08-24.07,136.13-36.23,9.05,14.83,21.22-5.9Z"/>
              <polygon class="cls-12" points="231.38 194.43 242.38 207.55 217.1 215.03 207.09 202.11 231.38 194.43"/>
              <polygon class="cls-13" points="163.96 281.87 218.73 752.71 202.12 723.78 147.81 261.48 163.96 281.87"/>
              <path class="cls-14" d="M147.81,261.48l54.32,462.3-35.71-62.17c-.06-.53-.14-1.08-.2-1.62-.55-4.29-1.09-8.58-1.64-12.87-1-8-2.02-16-3.02-24.01-1.4-11.01-2.79-22.04-4.19-33.06-1.68-13.35-3.37-26.71-5.05-40.06-1.9-15.01-3.79-30.01-5.7-45.01-2.01-15.97-4.03-31.93-6.04-47.89-2.06-16.25-4.1-32.49-6.16-48.73-2.01-15.82-4-31.65-6.01-47.48-1.86-14.73-3.72-29.47-5.57-44.2-1.64-12.94-3.27-25.89-4.92-38.84-1.31-10.47-2.64-20.95-3.96-31.42-.93-7.32-1.85-14.64-2.77-21.95-.28-2.29-2.22-8.24-1.33-10.43,.05-.11,.1-.21,.15-.3l37.8,47.71h0Z"/>
              <path class="cls-13" d="M166.22,659.99c.06,.55,.14,1.09,.2,1.62l-15.45-26.88L90.93,189.68l19.08,24.07h0c-.05,.1-.1,.2-.15,.31-.89,2.19,1.04,8.14,1.33,10.43,.93,7.31,1.85,14.63,2.77,21.95,1.33,10.48,2.65,20.96,3.96,31.42,1.65,12.96,3.28,25.9,4.92,38.84,1.86,14.73,3.72,29.47,5.57,44.2,2.01,15.83,4,31.66,6.01,47.48,2.06,16.24,4.1,32.48,6.16,48.73,2.02,15.95,4.04,31.92,6.04,47.89,1.91,15,3.8,30,5.7,45.01,1.68,13.35,3.37,26.71,5.05,40.06,1.4,11.02,2.79,22.05,4.19,33.06,1,8,2.02,16,3.02,24.01,.55,4.29,1.09,8.58,1.64,12.87Z"/>
            </g>
            <g>
              <polygon class="cls-4" points="163.96 281.87 893.94 73.3 850.75 500.96 218.73 752.71 163.96 281.87"/>
              <polyline class="cls-4" points="613.38 50.62 642.73 42.82 699.57 27.68 785.43 4.83 812.45 21.87 863.37 54.02 893.94 73.3"/>
              <line class="cls-4" x1="434.77" y1="98.16" x2="576.27" y2="60.5"/>
              <polyline class="cls-4" points="218.73 752.71 202.12 723.78 166.41 661.62 150.97 634.74 90.93 189.68 227.06 153.44 295.78 135.15 402.48 106.76"/>
              <line class="cls-4" x1="147.81" y1="261.48" x2="163.96" y2="281.87"/>
              <line class="cls-4" x1="110.01" y1="213.75" x2="147.81" y2="261.47"/>
              <line class="cls-4" x1="90.93" y1="189.68" x2="110.01" y2="213.74"/>
              <polyline class="cls-4" points="863.37 54.02 147.81 261.47 147.81 261.48 202.12 723.78"/>
              <path class="cls-4" d="M263.67,171.52s-.06,.01-.09,.02c-12.72,3.46-25.43,6.94-38.15,10.4-11.36,3.1-22.72,6.19-34.09,9.29-9.71,2.65-19.43,5.3-29.16,7.95-7.83,2.13-15.66,4.26-23.47,6.4-5.67,1.55-11.35,3.08-17.02,4.63-3.23,.89-6.59,1.6-9.77,2.68-1.18,.38-1.57,.24-1.92,.84h0c-.05,.1-.1,.2-.15,.31-.89,2.19,1.04,8.14,1.33,10.43,.93,7.31,1.85,14.63,2.77,21.95,1.33,10.48,2.65,20.96,3.96,31.42,1.65,12.96,3.28,25.9,4.92,38.84,1.86,14.73,3.72,29.47,5.57,44.2,2.01,15.83,4,31.66,6.01,47.48,2.06,16.24,4.1,32.48,6.16,48.73,2.02,15.95,4.04,31.92,6.04,47.89,1.91,15,3.8,30,5.7,45.01,1.68,13.35,3.37,26.71,5.05,40.06,1.4,11.02,2.79,22.05,4.19,33.06,1,8,2.02,16,3.02,24.01,.55,4.29,1.09,8.58,1.64,12.87,.06,.55,.14,1.09,.2,1.62"/>
              <path class="cls-4" d="M405.1,132.15c-31.55,8.67-71.4,20.36-103.07,28.87-.14,.04-.28,.07-.42,.11"/>
              <path class="cls-4" d="M578.84,85.12c-47.74,12.93-95.88,26.22-141.83,38.91"/>
              <path class="cls-4" d="M677.42,58.87c-20.75,5.4-41.95,11.02-63.38,16.77"/>
              <path class="cls-4" d="M812.45,21.87c-32.39,7.82-64.29,17.53-96.37,26.53"/>
              <polyline class="cls-4" points="298.86 166.86 306.99 164.47 334.61 193.74 215.23 228.84 190.65 198.64 275.19 173.81"/>
              <polyline class="cls-4" points="716.84 57.1 774.67 39.71 808.37 62.89 717.55 90.27 683.61 67.1 698.34 62.66 698.59 62.59"/>
              <polygon class="cls-4" points="417.7 148.55 408.81 58.2 612.22 6.7 613.38 50.62 614.04 75.64 614.56 95.43 593.27 101.27 586.94 45.1 574.98 48.2 433.62 84.89 434.77 98.16 437.01 124.03 438.77 144.34 417.7 148.55"/>
              <polyline class="cls-4" points="417.7 148.55 405.88 139.66 405.1 132.15 402.48 106.76 396.75 51.53 596.88 .62 612.22 6.7"/>
              <line class="cls-4" x1="396.75" y1="51.53" x2="408.81" y2="58.2"/>
              <polyline class="cls-4" points="227.06 153.44 236.11 168.27 257.33 162.38 295.68 151.71 307.04 148.55 295.78 135.15"/>
              <polyline class="cls-4" points="642.73 42.82 654.38 54.02 664.98 51.05 703 40.39 712.85 37.63 699.57 27.68"/>
              <polyline class="cls-4" points="257.33 162.38 263.59 171.54 275.19 173.81 292.82 192.5 315.11 184.96 298.86 166.86 302.05 161.05 302.03 161.03 295.68 151.71"/>
              <polyline class="cls-4" points="664.98 51.05 677.06 58.8 677.42 58.86 698.34 62.66 719.61 77.63 734.52 73.3 716.84 57.1 715.5 48.49 715.47 48.32 703 40.39"/>
              <polygon class="cls-4" points="207.09 202.11 231.38 194.43 242.38 207.55 217.1 215.03 207.09 202.11"/>
              <polygon class="cls-4" points="249.64 188.93 259.35 201.93 270.47 198.64 260.06 185.54 249.64 188.93"/>
              <polygon class="cls-4" points="761.22 50.36 775.37 61.95 790.71 56.68 775.49 45.45 761.22 50.36"/>
              <polygon class="cls-4" points="750.09 54.02 765.77 65.81 753.36 69.32 740.15 57.62 750.09 54.02"/>
              <path class="cls-4" d="M574.64,303.27l67.47-18.7,16.34-25.97-253.4,70.26-16.34,25.97,42.78-11.85c44.43-12.32,86.28-22.06,111.08-7.49l-120.11,33.31-16.34,25.97,149.73-41.52,.37,.83c6.16,14.15-7.44,42.16-83.14,63.15l-37.84,10.49,7.98,18.31,189.08,52.94,67.46-18.72-197.11-54.44c63.44-19.46,114.7-54.18,109.15-88.07l47.71-13.24,16.34-25.97-74.03,20.54c-4.92-7.04-14.76-12.7-27.18-15.78Z"/>
              <polyline class="cls-4" points="593.27 101.27 579.8 94.3 578.85 85.12 576.27 60.5 574.98 48.2"/>
            </g>
          </g>
          <g>
            <polygon class="cls-9" points="218.74 752.71 311.74 239.64 404.97 124.02 405.88 139.66 417.7 148.56 438.77 144.34 434.77 98.16 570.74 61.95 462.18 196.66 353.36 699.08 218.74 752.71"/>
            <polygon class="cls-9" points="761.21 111.22 691.02 564.58 775.96 530.75 844.45 87.44 761.21 111.22"/>
            <polyline class="cls-9" points="761.21 111.22 818.58 25.75 863.37 54.01 844.45 87.44"/>
            <polygon class="cls-10" points="90.93 189.67 150.97 634.73 218.74 752.71 183.84 452.75 90.93 189.67"/>
          </g>
          <g>
            <path class="cls-7" d="M294.91,253.3c-123.15,13.22-133.87,23.95-147.1,147.1-13.22-123.15-23.95-133.87-147.1-147.1,123.15-13.22,133.87-23.95,147.1-147.1,13.22,123.15,23.95,133.87,147.1,147.1Z"/>
            <g class="cls-8">
              <circle class="cls-9" cx="81.01" cy="176.17" r="98.68"/>
            </g>
            <path class="cls-6" d="M294.91,253.3c-123.15,13.22-133.87,23.95-147.1,147.1-13.22-123.15-23.95-133.87-147.1-147.1,123.15-13.22,133.87-23.95,147.1-147.1,13.22,123.15,23.95,133.87,147.1,147.1Z"/>
          </g>
        </g>
      </g>
    </g>
  </g>
</svg>