<?xml version="1.0" encoding="UTF-8"?><svg xmlns="http://www.w3.org/2000/svg" xmlns:xlink="http://www.w3.org/1999/xlink" viewBox="0 0 1067.77 826.49"><defs><style>.cls-1{fill:#882ee8;}.cls-1,.cls-2,.cls-3,.cls-4,.cls-5,.cls-6,.cls-7,.cls-8,.cls-9{stroke:#231f20;stroke-miterlimit:10;stroke-width:.5px;}.cls-10{isolation:isolate;}.cls-2{fill:#2e2641;}.cls-3{fill:#732ad1;}.cls-4{fill:#be92ed;}.cls-5{fill:#f7d134;}.cls-6{fill:#6522bc;}.cls-11{clip-path:url(#clippath-1);}.cls-12{fill:#fff;mix-blend-mode:soft-light;}.cls-13,.cls-14{fill:#f7ec32;}.cls-13,.cls-15{stroke:#151515;stroke-linejoin:round;stroke-width:.25px;}.cls-7{fill:#e6e7e8;}.cls-16{clip-path:url(#clippath);}.cls-17{fill:#16141f;}.cls-8{fill:#f9ed32;}.cls-15{fill:none;}.cls-9{fill:#513c80;}.cls-18{fill:#d1d3d4;}</style><clipPath id="clippath"><path class="cls-13" d="M1000.07,510.03c-57-52.47-69.94-51-177.44,20.05,97.63-84.11,102.55-96.16,67.58-165.29,57,52.47,69.94,51,177.44-20.05-97.63,84.11-102.55,96.16-67.58,165.29Z"/></clipPath><clipPath id="clippath-1"><path class="cls-13" d="M938.61,574.23c-26.74-24.61-32.81-23.93-83.25,9.41,45.8-39.46,48.11-45.11,31.7-77.55,26.74,24.61,32.81,23.93,83.25-9.41-45.8,39.46-48.11,45.11-31.7,77.55Z"/></clipPath></defs><g class="cls-10"><g id="Layer_2"><g id="Layer_1-2"><path class="cls-2" d="M325.27,825.73L1010.16,463.06c1.47-.77,2.39-2.28,2.39-3.94v-13.68c0-1.81-1.09-3.43-2.77-4.11l-305.17-124.29c-1.12-.46-2.39-.43-3.49,.06L3.03,630.8c-1.58,.71-2.6,2.27-2.62,4l-.16,12.93c-.02,1.66,.89,3.2,2.36,3.98l318.52,174.02c1.29,.69,2.84,.69,4.14,.01Z"/><path class="cls-9" d="M324.57,806.23L1010.15,448.57c3.23-1.69,3.17-6.33-.11-7.93l-318.57-155.4c-1.25-.61-2.71-.6-3.95,.03L2.86,630.23c-3.22,1.62-3.27,6.21-.08,7.89l317.66,168.1c1.29,.68,2.84,.69,4.13,.01Z"/><path class="cls-7" d="M326.52,794.16L974.66,454.89c2.95-1.55,2.89-5.83-.1-7.3l-303.69-144.89c-1.14-.56-2.47-.55-3.6,.02L21.88,628.42c-2.94,1.49-2.98,5.71-.07,7.26l300.94,158.46c1.18,.63,2.59,.63,3.77,.01Z"/><path class="cls-5" d="M21.81,618.28v-67.44l20.12-94.11,47.71-12.02,44.83-83.65,74.15,77.9,40.81-93.06,16.67,9.93,59.78-112.93,31.61,15.68,45.98,54.9,28.16-70.58,61.5,57.51,81.05-212.78s35.64,71.63,37.94,71.63h28.16l24.72,26.66,25.29-77.9,20.31,71.63v131.23L21.81,618.28Z"/><path class="cls-8" d="M21.81,635.69v-67.44l20.12-94.11,47.71-12.02,44.83-83.65,74.15,77.9,40.81-93.06,16.67,9.93,59.78-112.93,31.61,15.68,45.98,54.9,28.16-70.58,61.5,57.51,81.05-212.78s35.64,71.63,37.94,71.63h28.16l24.72,26.66,25.29-77.9,20.31,71.63v131.23L21.81,635.69Z"/><polygon class="cls-6" points="93.78 651.17 110.27 561.94 147.21 550.09 202.27 470.62 273.27 534.75 308.77 452.5 322.53 466.44 395.7 327.02 451.48 413.46 489.16 343.06 542.04 401.61 619.56 184.12 652.88 263.59 691.28 262.19 695.63 290.77 728.23 208.52 745.16 271.38 744.89 343.75 93.78 651.17"/><polygon class="cls-3" points="102.31 651.17 118.79 561.94 155.74 550.09 210.8 470.62 281.8 534.75 317.3 452.5 331.06 466.44 404.23 327.02 460.01 413.46 497.68 343.06 550.57 401.61 628.09 184.12 661.41 263.59 699.81 262.19 704.15 290.77 736.76 208.52 753.69 271.38 753.42 343.75 102.31 651.17"/><path class="cls-17" d="M322.75,806.99v18.84c0,.22-.24,.36-.43,.25L2.33,651.53c-1.11-.61-2.05-2.26-2.08-3.53v-14.45c0-.22,.23-.36,.43-.25l321.92,173.43c.09,.05,.15,.15,.15,.25Z"/><polygon class="cls-1" points="730.9 524.55 678.83 552.7 678.83 341.89 730.9 313.85 730.9 524.55"/><polygon class="cls-6" points="626.75 524.55 678.83 552.7 678.83 341.89 626.75 313.85 626.75 524.55"/><polygon class="cls-4" points="626.75 314.74 678.83 342.89 730.9 313.85 680.5 290.48 626.75 314.74"/><polygon class="cls-1" points="605.06 538.94 552.99 567.09 552.99 51.68 605.06 23.64 605.06 538.94"/><polygon class="cls-6" points="500.91 538.94 552.99 567.09 552.99 51.68 500.91 23.64 500.91 538.94"/><polygon class="cls-4" points="500.91 24.53 552.99 52.68 605.06 23.64 554.65 .27 500.91 24.53"/><polygon class="cls-1" points="458.98 614.51 406.91 642.66 406.91 256.1 458.98 228.06 458.98 614.51"/><polygon class="cls-6" points="354.84 614.51 406.91 642.66 406.91 256.1 354.84 228.06 354.84 614.51"/><polygon class="cls-4" points="354.84 228.95 406.91 257.11 458.98 228.06 408.58 204.7 354.84 228.95"/><polygon class="cls-1" points="385.01 689.43 332.94 717.59 332.94 547.01 385.01 518.97 385.01 689.43"/><polygon class="cls-6" points="280.87 689.43 332.94 717.59 332.94 547.01 280.87 518.97 280.87 689.43"/><polygon class="cls-4" points="280.87 519.86 332.94 548.01 385.01 518.97 334.61 495.6 280.87 519.86"/><polygon class="cls-18" points="938.53 445.68 782.5 364.8 772.19 369.23 928.23 450.1 938.53 445.68"/><polygon class="cls-18" points="932.01 461.55 775.98 380.68 765.67 385.11 921.71 465.98 932.01 461.55"/><polygon class="cls-18" points="911.03 468.27 755 387.4 749.85 389.61 905.88 470.48 911.03 468.27"/><polygon class="cls-18" points="339.91 760.31 183.87 679.44 173.57 683.87 329.61 764.74 339.91 760.31"/><polygon class="cls-18" points="305.44 761.42 149.41 680.55 144.26 682.76 300.29 763.63 305.44 761.42"/><g><path class="cls-14" d="M1000.07,510.03c-57-52.47-69.94-51-177.44,20.05,97.63-84.11,102.55-96.16,67.58-165.29,57,52.47,69.94,51,177.44-20.05-97.63,84.11-102.55,96.16-67.58,165.29Z"/><g class="cls-16"><ellipse class="cls-12" cx="984.43" cy="355.84" rx="103.05" ry="61.08" transform="translate(-15.35 665.94) rotate(-37.11)"/></g><path class="cls-15" d="M1000.07,510.03c-57-52.47-69.94-51-177.44,20.05,97.63-84.11,102.55-96.16,67.58-165.29,57,52.47,69.94,51,177.44-20.05-97.63,84.11-102.55,96.16-67.58,165.29Z"/></g><g><path class="cls-14" d="M938.61,574.23c-26.74-24.61-32.81-23.93-83.25,9.41,45.8-39.46,48.11-45.11,31.7-77.55,26.74,24.61,32.81,23.93,83.25-9.41-45.8,39.46-48.11,45.11-31.7,77.55Z"/><g class="cls-11"><ellipse class="cls-12" cx="931.27" cy="501.89" rx="48.35" ry="28.66" transform="translate(-114.23 663.44) rotate(-37.11)"/></g><path class="cls-15" d="M938.61,574.23c-26.74-24.61-32.81-23.93-83.25,9.41,45.8-39.46,48.11-45.11,31.7-77.55,26.74,24.61,32.81,23.93,83.25-9.41-45.8,39.46-48.11,45.11-31.7,77.55Z"/></g></g></g></g></svg>