<?xml version="1.0" encoding="UTF-8"?><svg id="Layer_2" xmlns="http://www.w3.org/2000/svg" viewBox="0 0 334.1 273.12"><defs><style>.cls-1,.cls-2,.cls-3,.cls-4,.cls-5,.cls-6,.cls-7{stroke-miterlimit:10;stroke-width:.25px;}.cls-1,.cls-2,.cls-4,.cls-6,.cls-7{stroke:#231f20;}.cls-1,.cls-5{fill:#8556a3;}.cls-2{fill:#d1d3d4;}.cls-3{fill:#f9ed32;}.cls-3,.cls-5{stroke:#000;}.cls-4{fill:#fbb040;}.cls-8{fill:#f1f2f2;}.cls-9{opacity:.51;}.cls-9,.cls-10,.cls-7{fill:#473556;}.cls-11{fill:#414042;opacity:.17;}.cls-6{fill:#e6e7e8;}.cls-10{opacity:.22;}</style></defs><g id="Layer_3"><path class="cls-7" d="M52.84,216.86l19.09-7.73c1.92-.78,4.11,.15,4.89,2.07l15.35,37.88c2.7,6.66-.51,14.25-7.17,16.94l-10.51,4.26c-1.92,.78-4.11-.15-4.89-2.07l-2.4-7.82c-3.33-10.84-7.6-21.37-12.76-31.47l-3.66-7.17c-.78-1.92,.15-4.11,2.07-4.89Z"/><path class="cls-5" d="M50.81,219.3l19.09-7.73c1.92-.78,4.11,.15,4.89,2.07l15.35,37.88c2.7,6.66-.51,14.25-7.17,16.94l-10.51,4.26c-1.92,.78-4.11-.15-4.89-2.07l-2.4-7.82c-3.33-10.84-7.6-21.37-12.76-31.47l-3.66-7.17c-.78-1.92,.15-4.11,2.07-4.89Z"/><path class="cls-7" d="M5.67,159.7l-2.16,1.47c-2.17,1.48-3.45,3.95-3.39,6.58,.17,7.59,1.84,24.01,6.3,35.18s11.02,19.05,14.64,23.27c1.1,1.28,2.57,2.16,4.19,2.52,.93,.21,1.9,.09,2.75-.32l1.98-.95c2.06-.98,2.99-3.42,2.09-5.53L5.77,160.41"/><path class="cls-6" d="M57.92,142.83s-3.44,14.06,.43,30.9c3,13.04,11.31,28.86,23.1,34.02,58.68,3.54,101.15,14.8,101.15,14.8L126.87,67.03s-45.71,60.78-68.95,75.8Z"/><path class="cls-5" d="M209.74,129.03c14.24,43.7,18.14,90.99-5.39,99.81-20.14,7.55-54.14-36.88-68.03-81.1s-16.73-92.19,3.69-99.5c22.96-8.22,53.57,31.2,69.73,80.79Z"/><path class="cls-9" d="M203.06,140.69c14.24,43.7,12.67,74.64-3.97,78.96s-44.5-29.48-58.39-73.7-15.21-79.85,1.43-84.17c16.64-4.32,44.78,29.32,60.93,78.91Z"/><path class="cls-6" d="M206.46,138.42c14.24,43.7,12.67,74.64-3.97,78.96s-44.5-29.48-58.39-73.7-15.21-79.85,1.43-84.17c16.64-4.32,44.78,29.32,60.93,78.91Z"/><path class="cls-11" d="M152.53,61.41s28.06,12.93,46.37,68.2c20.6,62.17,10.25,81.69,10.25,81.69,0,0,17.45-12.75-8.22-85.32-26.98-64.56-48.4-64.56-48.4-64.56Z"/><path class="cls-8" d="M57.94,171.13s1.41,8.08,4.85,15.13c2.83,.85,79.89-20.61,79.89-20.61,0,0-7.36-18.64-10.02-29.3-13.29,4.37-74.72,34.78-74.72,34.78Z"/><path class="cls-5" d="M5.67,161.55c-.02,12.06,1.14,46.42,24.95,64.93,1.49,1.16,3.52,1.39,5.26,.66,41.06-17.41,45.57-19.38,45.57-19.38,0,0-32.03-18.14-23.53-64.91-30.5,8.58-43.18,12.17-48.44,13.67-2.26,.64-3.81,2.7-3.82,5.05Z"/><path class="cls-3" d="M59.86,153.13l-3.8-6.81c-.7-1.25-2.04-1.99-3.46-1.92l-7.79,.38,6.95-3.62c1.33-.7,2.13-2.12,2.01-3.62l-.61-7.81,3.77,6.83c.7,1.26,2.05,2.01,3.49,1.93l7.79-.41-6.95,3.62c-1.33,.7-2.13,2.12-2.01,3.62l.61,7.81Z"/><path class="cls-10" d="M6.91,177.4s.99,30.84,23.69,48.87c1.51,1.2,3.56,1.45,5.33,.69,9.53-4.11,41.23-15.43,45.15-19.14-17.48-11.8-23.86-30.22-24.66-44.33-3.69,.83-49.51,13.91-49.51,13.91Z"/><polygon class="cls-4" points="157.64 80.28 166.97 51.56 157.64 45.13 185.11 6.58 176.48 39.46 182.94 42.11 157.64 80.28"/><polygon class="cls-4" points="178.75 111.97 221.99 67.4 215.06 48 294.84 .52 248.32 53.24 254.98 63.38 178.75 111.97"/><polygon class="cls-4" points="210.11 197.55 250.03 196.18 256.04 185.11 313.43 197.37 268.26 200.87 266.45 207.89 210.11 197.55"/><polygon class="cls-4" points="223.35 222.55 257.26 231.76 265.11 223.64 310.28 249.35 271.41 240.63 268.12 246.31 223.35 222.55"/><polygon class="cls-4" points="221.21 117.83 224.06 125.39 334.05 72.48 221.21 117.83"/><polygon class="cls-4" points="232.91 149.89 235.05 156.69 278.52 144.79 232.91 149.89"/><path class="cls-3" d="M196.3,203.17l-1.57,14.4c-.29,2.64,.94,5.21,3.18,6.63l12.2,7.8-14.41-1.99c-2.77-.38-5.5,.93-6.94,3.32l-11.02,22.52,5.17-24.44c.3-2.65-.94-5.25-3.2-6.68l-12.24-7.75,14.41,1.99c2.77,.38,5.5-.93,6.94-3.32l7.48-12.48Z"/><path class="cls-1" d="M161.81,160.51l-4.04-21.93,5.42-4.09s17.81,15.63,16.04,36.28"/><path class="cls-2" d="M142.09,137.06s8.96,30.75,21.38,49.22c15.12-13.49,15.76-15.52,15.76-15.52,0,0-14.88-10.48-16.04-36.28-13.54,1.39-21.1,2.57-21.1,2.57Z"/><rect class="cls-7" x="59.81" y="222.77" width="13.86" height="1.29" transform="translate(-84.63 46.06) rotate(-23.85)"/><rect class="cls-7" x="59.99" y="225.79" width="13.86" height="1.29" transform="translate(-85.84 46.39) rotate(-23.85)"/><rect class="cls-7" x="59.53" y="228.85" width="13.86" height="1.29" transform="translate(-87.12 46.47) rotate(-23.85)"/></g></svg>