<?xml version="1.0" encoding="UTF-8"?>
<svg xmlns="http://www.w3.org/2000/svg" xmlns:xlink="http://www.w3.org/1999/xlink" viewBox="0 0 632.49 718.82">
  <defs>
    <style>
      .cls-1 {
        clip-path: url(#clippath-2);
      }

      .cls-2 {
        isolation: isolate;
      }

      .cls-3 {
        stroke-miterlimit: 10;
      }

      .cls-3, .cls-4, .cls-5, .cls-6, .cls-7 {
        stroke: #141414;
      }

      .cls-3, .cls-8 {
        stroke-width: 1.3px;
      }

      .cls-3, .cls-8, .cls-5, .cls-9, .cls-7 {
        fill: none;
      }

      .cls-4, .cls-8, .cls-5, .cls-6, .cls-7 {
        stroke-linejoin: round;
      }

      .cls-4, .cls-6, .cls-10 {
        fill: #f9ed32;
      }

      .cls-4, .cls-7 {
        stroke-width: 1.43px;
      }

      .cls-8 {
        stroke: #161211;
      }

      .cls-5, .cls-6 {
        stroke-width: 1.01px;
      }

      .cls-11 {
        fill: #6522bc;
      }

      .cls-12 {
        clip-path: url(#clippath-1);
      }

      .cls-13 {
        fill: #fff;
        mix-blend-mode: soft-light;
      }

      .cls-14 {
        clip-path: url(#clippath);
      }

      .cls-15 {
        fill: #d1d3d4;
      }

      .cls-16 {
        fill: #e6e7e8;
      }

      .cls-17 {
        fill: #882ee8;
      }

      .cls-18 {
        fill: #be92ed;
      }
    </style>
    <clipPath id="clippath">
      <path class="cls-6" d="M210.72,386.89c-74.81,8.03-81.33,14.55-89.36,89.36-8.03-74.81-14.55-81.33-89.36-89.36,74.81-8.03,81.33-14.55,89.36-89.36,8.03,74.81,14.55,81.33,89.36,89.36Z"/>
    </clipPath>
    <clipPath id="clippath-1">
      <path class="cls-9" d="M578.36,479.45v-8.44c0-3.78-9.02-6.83-20.14-6.83-1.99,0-3.92,.1-5.73,.28l-.03-.28-92.23-54.41c2.73-37.9-6.85-76.99-46.58-101.61,20.1-131.87-60.94-238.74-88.53-270.72,6.29-3.22,10.6-9.77,10.6-17.32,0-10.75-8.72-19.47-19.47-19.47s-19.47,8.71-19.47,19.47c0,7.65,4.43,14.28,10.86,17.45-84.38,100.61-97.63,195.45-88.29,267.29,0,0-14.33,22.01-9.03,82.03l-132.38,77.01h0c-.34,0-.69,0-1.03,0-11.12,0-20.14,3.06-20.14,6.83v5.49L.65,508.84v28.54l319.33,180.79,311.87-181.27v-25.9l-53.49-31.55Z"/>
    </clipPath>
    <clipPath id="clippath-2">
      <path class="cls-4" d="M580.24,136.22c-110.53,11.87-120.15,21.49-132.02,132.02-11.87-110.53-21.49-120.15-132.02-132.02,110.53-11.87,120.15-21.49,132.02-132.02,11.87,110.53,21.49,120.15,132.02,132.02Z"/>
    </clipPath>
  </defs>
  <g class="cls-2">
    <g id="Layer_2" data-name="Layer 2">
      <g id="Layer_1-2" data-name="Layer 1">
        <g>
          <g>
            <path class="cls-10" d="M210.72,386.89c-74.81,8.03-81.33,14.55-89.36,89.36-8.03-74.81-14.55-81.33-89.36-89.36,74.81-8.03,81.33-14.55,89.36-89.36,8.03,74.81,14.55,81.33,89.36,89.36Z"/>
            <g class="cls-14">
              <circle class="cls-13" cx="171.93" cy="353.46" r="59.95"/>
            </g>
            <path class="cls-5" d="M210.72,386.89c-74.81,8.03-81.33,14.55-89.36,89.36-8.03-74.81-14.55-81.33-89.36-89.36,74.81-8.03,81.33-14.55,89.36-89.36,8.03,74.81,14.55,81.33,89.36,89.36Z"/>
          </g>
          <g>
            <g>
              <polygon class="cls-15" points="631.84 511.01 631.84 536.9 319.98 718.17 319.98 692.27 631.84 511.01"/>
              <path class="cls-16" d="M631.84,511.01l-311.87,181.27L.65,508.84l56.11-32.63v43.42c0,3.78,9.02,8.29,20.14,8.29s20.14-4.51,20.14-8.29v-48.91c0-3.65-8.46-6.63-19.1-6.82l132.38-77.01c2.4,27.18,8.82,62.14,22.43,106.37l11.03-6.84s3.01-44.8,14.93-64.77h0c5.24,8.99,8.8,13.82,8.8,13.82,.58,.52,1.16,1.03,1.74,1.52-6.81,75.75,7.25,160.32,7.25,160.32l16.9,3.6c-5.21-68.4,14.61-140.97,16-145.93,6.56,.56,10.57-.27,10.57-.27,33.99-2.7,40.46-17.09,40.46-17.09,4.76-6.89,9.17-13.77,13.24-20.61,0,0,33.38,19.17,51.36,102.61,0,0,31.13-53.64,35.18-109.86l92.23,54.41,.03,.28c-8.33,.84-14.41,3.45-14.41,6.55v48.91c0,3.78,9.02,8.28,20.14,8.28s20.14-4.5,20.14-8.28v-40.47l53.49,31.56Zm-297.01,144.93v-48.91c0-3.77-9.02-6.83-20.14-6.83s-20.14,3.06-20.14,6.83v48.91c0,3.78,9.02,8.29,20.14,8.29s20.14-4.51,20.14-8.29Z"/>
              <path class="cls-10" d="M578.36,479.45v40.47c0,3.78-9.02,8.28-20.14,8.28s-20.14-4.5-20.14-8.28v-48.91c0,3.78,9.02,6.84,20.14,6.84s20.14-3.06,20.14-6.84v8.44Z"/>
              <path class="cls-10" d="M558.21,464.18c11.12,0,20.14,3.05,20.14,6.83s-9.02,6.84-20.14,6.84-20.14-3.06-20.14-6.84c0-3.1,6.08-5.72,14.41-6.55,1.82-.18,3.74-.28,5.73-.28Z"/>
              <path class="cls-10" d="M413.65,308.16c39.73,24.62,49.3,63.71,46.58,101.61-4.05,56.23-35.18,109.86-35.18,109.86-17.98-83.44-51.36-102.61-51.36-102.61,22.29-37.43,34.66-74.02,39.97-108.87Z"/>
              <path class="cls-17" d="M325.12,37.44c27.59,31.98,108.63,138.85,88.53,270.72-5.31,34.85-17.68,71.44-39.97,108.87-4.07,6.84-8.48,13.71-13.24,20.61,0,0-6.48,14.39-40.46,17.09,0,0-64.45-205.63-7.09-415.44,1.09,.19,2.21,.3,3.36,.3,3.19,0,6.22-.77,8.87-2.14Zm67.8,238.83c0-25.53-12.45-46.23-27.82-46.23s-27.81,20.7-27.81,46.23,12.45,46.24,27.81,46.24,27.82-20.7,27.82-46.24Z"/>
              <path class="cls-18" d="M365.1,230.03c15.36,0,27.82,20.7,27.82,46.23s-12.45,46.24-27.82,46.24-27.81-20.7-27.81-46.24,12.45-46.23,27.81-46.23Zm19.19,46.23c0-17.61-8.59-31.89-19.19-31.89s-19.18,14.28-19.18,31.89,8.59,31.89,19.18,31.89,19.19-14.27,19.19-31.89Z"/>
              <path class="cls-10" d="M365.1,244.38c10.6,0,19.19,14.28,19.19,31.89s-8.59,31.89-19.19,31.89-19.18-14.27-19.18-31.89,8.59-31.89,19.18-31.89Z"/>
              <path class="cls-10" d="M334.83,607.03v48.91c0,3.78-9.02,8.29-20.14,8.29s-20.14-4.51-20.14-8.29v-48.91c0,3.78,9.02,6.84,20.14,6.84s20.14-3.06,20.14-6.84Z"/>
              <path class="cls-17" d="M316.2,27.64c-2.93,3.31-5.78,6.62-8.56,9.93-6.43-3.17-10.86-9.8-10.86-17.45,0-10.75,8.72-19.47,19.47-19.47s19.47,8.71,19.47,19.47c0,7.55-4.31,14.1-10.6,17.32-5.53-6.4-8.92-9.8-8.92-9.8Z"/>
              <path class="cls-10" d="M314.69,600.2c11.12,0,20.14,3.06,20.14,6.83s-9.02,6.84-20.14,6.84-20.14-3.06-20.14-6.84,9.02-6.83,20.14-6.83Z"/>
              <polygon class="cls-15" points="319.98 692.27 319.98 718.17 .65 537.38 .65 508.84 319.98 692.27"/>
              <path class="cls-17" d="M325.12,37.44c-2.65,1.37-5.68,2.14-8.87,2.14-1.15,0-2.27-.1-3.36-.3,1.07-3.88,2.16-7.77,3.31-11.64,0,0,3.39,3.4,8.92,9.8Z"/>
              <path class="cls-11" d="M319.98,454.72s-4.01,.83-10.57,.27c.05-.18,.07-.27,.07-.27-7.67-32.79-11.04-82.79-11.04-82.79h-15.82c-7.14,18.99-11.25,41.61-13.36,65.07-.58-.49-1.17-1-1.74-1.52,0,0-3.56-4.83-8.8-13.82-11.85-20.3-32.22-61.81-39.37-116.79-9.34-71.84,3.91-166.68,88.29-267.29,1.63,.82,3.4,1.4,5.25,1.72-57.36,209.81,7.09,415.44,7.09,415.44Z"/>
              <path class="cls-17" d="M316.2,27.64c-1.15,3.88-2.25,7.77-3.31,11.64-1.86-.32-3.62-.9-5.25-1.72,2.78-3.3,5.63-6.62,8.56-9.93Z"/>
              <path class="cls-10" d="M309.41,454.99c-1.38,4.95-21.21,77.53-16,145.93l-16.9-3.6s-14.06-84.57-7.25-160.32c2.11-23.46,6.22-46.08,13.36-65.07h15.82s3.37,50,11.04,82.79c0,0-.03,.09-.07,.27Z"/>
              <path class="cls-10" d="M258.71,421.66h0c-11.92,19.98-14.93,64.77-14.93,64.77l-11.03,6.84c-13.6-44.24-20.02-79.2-22.43-106.37-5.3-60.02,9.03-82.03,9.03-82.03,7.14,54.98,27.52,96.49,39.37,116.79Z"/>
              <path class="cls-10" d="M97.04,470.72v48.91c0,3.78-9.02,8.29-20.14,8.29s-20.14-4.51-20.14-8.29v-48.91c0,3.78,9.02,6.84,20.14,6.84s20.14-3.06,20.14-6.84Z"/>
              <path class="cls-10" d="M77.94,463.9c10.64,.19,19.1,3.17,19.1,6.82s-9.02,6.84-20.14,6.84-20.14-3.06-20.14-6.84,9.02-6.83,20.14-6.83c.34,0,.69,0,1.03,0h0Z"/>
            </g>
            <g>
              <path class="cls-8" d="M325.12,37.44c27.59,31.98,108.63,138.85,88.53,270.72-5.31,34.85-17.68,71.44-39.97,108.87-4.07,6.84-8.48,13.71-13.24,20.61,0,0-6.48,14.39-40.46,17.09,0,0-64.45-205.63-7.09-415.44"/>
              <path class="cls-8" d="M269.26,437c-.58-.49-1.17-1-1.74-1.52,0,0-3.56-4.83-8.8-13.82-11.85-20.3-32.22-61.81-39.37-116.79-9.34-71.84,3.91-166.68,88.29-267.29"/>
              <path class="cls-8" d="M319.98,454.72s-4.01,.83-10.57,.27h0"/>
              <path class="cls-8" d="M384.28,276.27c0,17.62-8.59,31.89-19.19,31.89s-19.18-14.27-19.18-31.89,8.59-31.89,19.18-31.89,19.19,14.28,19.19,31.89Z"/>
              <path class="cls-8" d="M392.91,276.27c0,25.54-12.45,46.24-27.82,46.24s-27.81-20.7-27.81-46.24,12.45-46.23,27.81-46.23,27.82,20.7,27.82,46.23Z"/>
              <path class="cls-8" d="M269.26,437c2.11-23.46,6.22-46.08,13.36-65.07h15.82s3.37,50,11.04,82.79c0,0-.03,.09-.07,.27-1.38,4.95-21.21,77.53-16,145.93l-16.9-3.6s-14.06-84.57-7.25-160.32Z"/>
              <path class="cls-8" d="M373.68,417.03s33.38,19.17,51.36,102.61c0,0,31.13-53.64,35.18-109.86,2.73-37.9-6.85-76.99-46.58-101.61"/>
              <path class="cls-8" d="M219.35,304.86s-14.33,22.01-9.03,82.03c2.4,27.18,8.82,62.14,22.43,106.37l11.03-6.84s3.01-44.8,14.93-64.77"/>
              <line class="cls-8" x1="552.45" y1="464.18" x2="460.23" y2="409.77"/>
              <polyline class="cls-8" points="56.76 476.21 .65 508.84 319.98 692.27 631.84 511.01 578.36 479.45"/>
              <line class="cls-8" x1="210.32" y1="386.89" x2="77.94" y2="463.9"/>
              <polyline class="cls-8" points=".65 508.84 .65 537.38 319.98 718.17 319.98 692.27"/>
              <polyline class="cls-8" points="319.98 718.17 631.84 536.9 631.84 511.01"/>
              <polyline class="cls-8" points="56.76 519.63 56.76 476.21 56.76 470.72"/>
              <line class="cls-8" x1="97.04" y1="470.72" x2="97.04" y2="519.63"/>
              <path class="cls-8" d="M97.04,470.72c0,3.78-9.02,6.84-20.14,6.84s-20.14-3.06-20.14-6.84,9.02-6.83,20.14-6.83c.34,0,.69,0,1.03,0h0c10.64,.19,19.1,3.17,19.1,6.82Z"/>
              <path class="cls-8" d="M97.04,519.63c0,3.78-9.02,8.29-20.14,8.29s-20.14-4.51-20.14-8.29"/>
              <line class="cls-8" x1="294.55" y1="655.94" x2="294.55" y2="607.03"/>
              <line class="cls-8" x1="334.83" y1="607.03" x2="334.83" y2="655.94"/>
              <path class="cls-8" d="M334.83,607.03c0,3.78-9.02,6.84-20.14,6.84s-20.14-3.06-20.14-6.84,9.02-6.83,20.14-6.83,20.14,3.06,20.14,6.83Z"/>
              <path class="cls-8" d="M334.83,655.94c0,3.78-9.02,8.29-20.14,8.29s-20.14-4.51-20.14-8.29"/>
              <line class="cls-8" x1="538.07" y1="519.92" x2="538.07" y2="471.01"/>
              <polyline class="cls-8" points="578.36 471.01 578.36 479.45 578.36 519.92"/>
              <path class="cls-8" d="M578.36,471.01c0,3.78-9.02,6.84-20.14,6.84s-20.14-3.06-20.14-6.84c0-3.1,6.08-5.72,14.41-6.55,1.82-.18,3.74-.28,5.73-.28,11.12,0,20.14,3.05,20.14,6.83Z"/>
              <path class="cls-8" d="M578.36,519.92c0,3.78-9.02,8.28-20.14,8.28s-20.14-4.5-20.14-8.28"/>
              <path class="cls-3" d="M307.64,37.57c-6.43-3.17-10.86-9.8-10.86-17.45,0-10.75,8.72-19.47,19.47-19.47s19.47,8.71,19.47,19.47c0,7.55-4.31,14.1-10.6,17.32-2.65,1.37-5.68,2.14-8.87,2.14-1.15,0-2.27-.1-3.36-.3-1.86-.32-3.62-.9-5.25-1.72Z"/>
            </g>
          </g>
          <g class="cls-12">
            <polygon class="cls-13" points="277.12 697.7 190.73 697.7 418.63 20.12 505.02 20.12 277.12 697.7"/>
            <polygon class="cls-13" points="-19.97 173.4 -78.71 110.05 573.11 -183.55 631.84 -120.2 -19.97 173.4"/>
            <polygon class="cls-13" points="496.81 775.77 410.42 775.77 638.32 98.18 724.71 98.18 496.81 775.77"/>
            <polygon class="cls-13" points="-14 725.69 -100.39 725.69 127.51 48.1 213.9 48.1 -14 725.69"/>
          </g>
          <g>
            <path class="cls-10" d="M580.24,136.22c-110.53,11.87-120.15,21.49-132.02,132.02-11.87-110.53-21.49-120.15-132.02-132.02,110.53-11.87,120.15-21.49,132.02-132.02,11.87,110.53,21.49,120.15,132.02,132.02Z"/>
            <g class="cls-1">
              <circle class="cls-13" cx="388.27" cy="66.99" r="88.56"/>
            </g>
            <path class="cls-7" d="M580.24,136.22c-110.53,11.87-120.15,21.49-132.02,132.02-11.87-110.53-21.49-120.15-132.02-132.02,110.53-11.87,120.15-21.49,132.02-132.02,11.87,110.53,21.49,120.15,132.02,132.02Z"/>
          </g>
        </g>
      </g>
    </g>
  </g>
</svg>