<?xml version="1.0" encoding="UTF-8"?><svg id="Layer_2" xmlns="http://www.w3.org/2000/svg" viewBox="0 0 372.15 350.45"><defs><style>.cls-1{fill:#f9ed32;}.cls-1,.cls-2,.cls-3{stroke:#000;stroke-miterlimit:10;stroke-width:.25px;}.cls-4{opacity:.23;}.cls-4,.cls-5{fill:#e6e7e8;}.cls-5{opacity:.1;}.cls-2{fill:#8556a3;}.cls-6{fill:#00a651;}.cls-7{fill:#006838;}.cls-3{fill:#473556;}</style></defs><g id="Layer_4"><polygon class="cls-3" points="273.85 350.33 254.69 350.33 254.69 206.18 273.85 199.97 273.85 350.33"/><rect class="cls-2" x="273.85" y="199.97" width="53.74" height="150.36"/><polygon class="cls-3" points="215.77 350.33 196.61 350.33 196.61 89.11 215.77 77.85 215.77 350.33"/><rect class="cls-2" x="215.77" y="77.85" width="53.74" height="272.48"/><polygon class="cls-3" points="157.93 350.33 138.77 350.33 138.77 143.02 157.93 134.07 157.93 350.33"/><rect class="cls-2" x="157.93" y="134.07" width="53.74" height="216.25"/><polygon class="cls-3" points="42.85 350.33 23.69 350.33 23.69 95.21 42.85 84.21 42.85 350.33"/><polygon class="cls-3" points="100.39 350.33 81.23 350.33 81.23 14.73 100.39 .25 100.39 350.33"/><rect class="cls-2" x="100.39" y=".25" width="53.74" height="350.08"/><rect class="cls-2" x="42.85" y="84.21" width="53.74" height="266.12"/><polygon class="cls-4" points="23.69 110.67 327.59 240.04 327.59 279.19 23.69 151.93 23.69 110.67"/><polygon class="cls-5" points="23.69 161.04 327.59 290.41 327.59 296.9 23.69 169.64 23.69 161.04"/><g><polygon class="cls-7" points="26.22 280.64 21.06 289.42 142.53 239.24 184.88 289.42 320.51 211.7 372.15 176.84 363.95 170.92 288.63 172.13 302.88 193.82 194.47 255.26 154.14 201.77 26.22 280.64"/><polygon class="cls-6" points="21.06 289.42 41.94 313.48 146.81 247.25 189.16 297.43 324.79 219.71 340.31 240.19 372.15 176.84 296.75 176.84 310.29 196.12 193.98 261.94 152.24 207.75 21.06 289.42"/></g></g><g id="Layer_3"><path class="cls-1" d="M42.85,170.92l-6.17-24.69c-1.13-4.52-4.89-8.05-9.72-9.11L.62,131.34l26.63-5.1c5.12-.98,9.11-4.73,10.16-9.52l5.44-24.96,6.06,24.73c1.12,4.56,4.92,8.12,9.78,9.17l26.39,5.68-26.63,5.1c-5.12,.98-9.11,4.73-10.16,9.52l-5.44,24.96Z"/></g></svg>