<?xml version="1.0" encoding="UTF-8"?>
<svg xmlns="http://www.w3.org/2000/svg" xmlns:xlink="http://www.w3.org/1999/xlink" viewBox="0 0 1045.27 711.17">
  <defs>
    <style>
      .cls-1, .cls-2, .cls-3, .cls-4, .cls-5, .cls-6, .cls-7 {
        stroke: #141414;
        stroke-linejoin: round;
      }

      .cls-1, .cls-2, .cls-5, .cls-8 {
        fill: #f9ed32;
      }

      .cls-9 {
        clip-path: url(#clippath-2);
      }

      .cls-10 {
        isolation: isolate;
      }

      .cls-2, .cls-7 {
        stroke-width: 1.43px;
      }

      .cls-3, .cls-11, .cls-6, .cls-7 {
        fill: none;
      }

      .cls-3, .cls-5 {
        stroke-width: 1.01px;
      }

      .cls-12 {
        clip-path: url(#clippath-1);
      }

      .cls-13 {
        fill: #fff;
        mix-blend-mode: soft-light;
      }

      .cls-4 {
        fill: #882ee8;
      }

      .cls-14 {
        clip-path: url(#clippath);
      }
    </style>
    <clipPath id="clippath">
      <path class="cls-5" d="M835.89,149.05c-97.38,10.46-105.86,18.93-116.31,116.31-10.46-97.38-18.93-105.86-116.31-116.31,97.38-10.46,105.86-18.93,116.31-116.31,10.46,97.38,18.93,105.86,116.31,116.31Z"/>
    </clipPath>
    <clipPath id="clippath-1">
      <path class="cls-2" d="M486.51,585.79c-104.37,11.21-113.45,20.29-124.66,124.66-11.21-104.37-20.29-113.45-124.66-124.66,104.37-11.21,113.45-20.29,124.66-124.66,11.21,104.37,20.29,113.45,124.66,124.66Z"/>
    </clipPath>
    <clipPath id="clippath-2">
      <path class="cls-11" d="M1026.73,187.5c-6.67-5.1-14.6-8.69-23.79-10.79-.08-.02-.15-.04-.24-.06-.03,0-.06-.01-.1-.02-.02,0-.03,0-.05-.01-13.35-2.9-38.99-9.98-58.78-10.13,9.68-7.27,18.76-14.72,27.21-22.38,17.44-15.81,31.04-31.89,40.8-48.23,9.75-16.34,14.63-32.11,14.62-47.31-.01-17.57-6.26-29.51-18.7-35.9-.23-.15-.47-.28-.73-.39-.08-.04-.16-.07-.24-.1-.93-.44-1.9-.85-2.89-1.24-21.58-9.16-30.06-10.77-45.38-10.37-20.76,.53-46.99,.41-79.96,13.75-16.33,6.6-30.9,13.98-43.69,22.13-12.81,8.15-23.37,16.23-31.69,24.22-8.33,8-15.36,16.87-21.12,26.64-5.76,9.77-8.63,20.27-8.63,31.5,0,11.9,3.62,20.52,10.82,25.87,2.91,2.16,6.27,3.44,10.09,3.89h0s33.88,7.36,33.88,7.36h0c6.35,1.78,14.16,.81,23.46-2.95,11.52-4.66,21.85-12.55,30.97-23.68,9.12-11.12,13.67-23.46,13.67-37.01,0-9.25-2.74-16.99-8.18-23.22-5.45-6.22-13.78-9.22-24.98-8.99,3.52-4.06,7.76-7.51,12.72-10.35,4.52-2.58,9.11-4.83,13.77-6.78,6.39,9.16,9.6,23.75,9.61,43.81,.01,19.5-3.1,37.04-9.33,52.61-6.24,15.58-15.91,31.15-29.03,46.69-1.61,.65-3.12,1.19-4.56,1.6-1.44,.42-2.96,.95-4.56,1.6-4.8,1.94-8.73,4.19-11.77,6.74-3.05,2.56-4.56,5.65-4.56,9.28,0,2.34,.65,3.79,1.95,4.39h-.02s.09,.03,.09,.03c.33,.14,.69,.24,1.1,.27,.06,0,.12,0,.18,0l35.63,7.52h.01c.44,.29,.96,.48,1.58,.52,2.08,.15,4.24-.23,6.48-1.13,4.16-1.68,7.92-4.27,11.28-7.79,3.18-3.32,6.28-6.83,9.32-10.54,.61,.7,1.21,1.44,1.78,2.22,9.13,12.34,13.71,30.57,13.72,54.69,.01,18.51-2.86,36.19-8.61,53.06-5.17,15.17-12.55,28.74-22.12,40.74,.3-2.25,.47-4.53,.46-6.83,0-12.22-4.34-20.22-12.98-24-2.58-1.13-5.38-1.83-8.39-2.14-13.74-3.36-20.84-4.36-29.01-5.91-9.27-1.75-19.69-2.94-33.14,2.5-14.09,5.7-24.97,13.99-32.65,24.85-2.51,3.55-4.6,7.14-6.28,10.76-5.87-4.23-14.22-6.6-25.05-7.09-3.29-.15-6.85-.03-10.69,.35-3.76-3.21-8.74-5.52-14.93-6.9,5.36-4.02,10.24-8.18,14.62-12.48,10.66-10.46,18.6-20.8,23.82-31,5.22-10.2,7.83-19.08,7.82-26.64,0-10.63-3.61-18.43-10.75-23.42-.04-.03-.06-.08-.11-.11-.14-.09-.28-.17-.42-.26-.45-.3-.91-.58-1.38-.85-15.02-9.16-30.56-10.99-45.77-11.48-12.17-.4-28.64-.98-50.65,6.63h-.01s-.28,.1-.28,.1c-4.17,1.45-8.5,3.07-13.03,4.9-3.16,1.28-8.12,3.35-14.86,6.22l-89.57,35.69v6.47s21.36,4.59,21.36,4.59c.61,3.4,.92,8.14,.93,14.24l.1,160.55c0,7.77-.52,13.81-1.56,18.11-1.05,4.31-3.13,7.74-6.27,10.31-.37,.3-.77,.61-1.19,.92-.21-9.68-.31-17.17-.32-22.47,0-12.08,.3-22.14,.92-30.16l-37.41-8.04-4.87,1.97c-.05-2.73-.07-5.36-.08-7.88,0-5.39-.06-11.31-.17-17.74-.11-6.43,.25-15.97,1.08-28.61l-37.41-8.04-7.21,2.92c-.84,5.09-2.45,10.6-4.85,16.53-1.05,2.59-2.24,5.17-3.52,7.73l-.02-37.84c0-6.04,.46-10.65,1.4-13.84,.94-3.18,2.77-5.81,5.49-7.89,2.71-2.07,6.79-4.2,12.23-6.4l4.08-1.65c1.66-.67,3.3-1.23,4.94-1.74,.97,1.07,1.91,2.2,2.83,3.43,5.86,7.89,10.05,20.28,12.57,37.17l37.41,8.04,7.21-2.92c-.21-2.72-.43-6.09-.63-10.11-.21-4.01-.32-8.29-.32-12.82,0-5.39,.15-13.17,.46-23.33,.31-10.16,.87-20.8,1.71-31.93l-37.41-8.04-175.3,70.89v3.88s-6.27-1.35-6.27-1.35l-65.23,26.38v6.47s24.52,5.27,24.52,5.27c1.72,3.68,2.65,8.76,2.78,15.25,.21,11.03-2.6,27.33-8.44,48.9l-9.54,35.43h0l-18.62-50.73c-2.51-6.54-3.51-11.8-2.99-15.79,.52-3.98,2.55-7.4,6.11-10.24,3.55-2.84,8.57-5.68,15.05-8.52l-.52-6.25-36.9-8.27-102.86,41.6v6.47s13.11,2.82,13.11,2.82c1.09,1.5,2.06,3.47,2.9,5.93l21.34,58.49-12.54,40.19h0l-23.13-57.74c-1.05-2.81-1.84-6.11-2.36-9.89-.53-3.78-.22-7.47,.93-11.06,1.14-3.59,3.5-6.43,7.05-8.52v-6.47s-37.41-8.04-37.41-8.04L.5,498.1v6.47s11.52,2.48,11.52,2.48c2.52,2.12,4.86,5.69,7,10.76l72.88,172.57,37.41,8.04c2.51-1.23,5.17-2.47,8-3.72,2.82-1.25,5.59-2.42,8.31-3.52,2.93-1.18,5.8-2.29,8.62-3.32,2.82-1.03,5.49-1.95,8-2.75l28.49-94.73,19.09,52.31,37.41,8.04c2.51-1.23,5.17-2.47,8-3.72,2.82-1.25,5.59-2.42,8.31-3.52,2.93-1.18,5.8-2.29,8.62-3.32,2.82-1.03,5.49-1.95,8-2.75l52.57-198.69c4.17-15.72,8.87-28.08,14.09-37.11,2.1-3.62,4.16-6.85,6.19-9.71l.1,158.51c0,7.77-.52,13.81-1.56,18.11-1.05,4.31-3.13,7.74-6.27,10.31-3.13,2.56-7.95,5.37-14.42,8.42v6.47s37.41,8.04,37.41,8.04c9.2-3.93,18.97-8.05,29.32-12.34,10.35-4.29,20.59-8.54,30.73-12.75,10.14-4.21,19.55-8.07,28.22-11.58,8.67-3.51,15.84-6.4,21.48-8.69,10.45-4.23,22.37-8.99,35.75-14.3,13.38-5.3,25.4-9.89,36.06-13.77-.48-4.73-.86-9.4-1.17-14.04l23.43,5.04c6.06-2.88,14.06-6.38,23.99-10.51,9.93-4.12,20.12-8.3,30.58-12.53,13.59-5.5,25.24-10.05,34.97-13.66s17.09-6.43,22.11-8.46c19.44-7.86,36.22-16.86,50.33-26.99,14.11-10.13,24.92-21.36,32.44-33.68,3.21-5.26,5.72-10.71,7.56-16.35,3.2,1.84,7.03,3.25,11.5,4.24l33.43,6.99h0c1.27,.38,2.58,.74,3.98,1.05,9.28,1.54,20.01,1.08,32.18-1.36,12.16-2.44,25.61-6.64,40.34-12.59,18.88-7.64,37.21-17.37,54.98-29.18,17.76-11.81,33.76-25.06,48.01-39.74,14.24-14.68,25.51-30.15,33.83-46.4,8.31-16.25,12.47-32.64,12.46-49.16-.01-19.83-6.03-34.33-18.04-43.52ZM463.46,470.82l31.32,6.74c-1.71,4.98-3.57,9.63-5.59,13.94-6.48,13.84-13.53,24.63-21.15,32.35-4.77,4.83-9.39,8.7-13.87,11.59l-.05-80.41,2.85-1.15c3.2,4.63,5.37,10.27,6.5,16.94Zm-288.39,145.72l11.62-37.23h0l-11.62,37.23Z"/>
    </clipPath>
  </defs>
  <g class="cls-10">
    <g id="Layer_2" data-name="Layer 2">
      <g id="Layer_1-2" data-name="Layer 1">
        <g>
          <g>
            <g>
              <path class="cls-8" d="M835.89,149.05c-97.38,10.46-105.86,18.93-116.31,116.31-10.46-97.38-18.93-105.86-116.31-116.31,97.38-10.46,105.86-18.93,116.31-116.31,10.46,97.38,18.93,105.86,116.31,116.31Z"/>
              <g class="cls-14">
                <circle class="cls-13" cx="785.4" cy="105.53" r="78.03"/>
              </g>
              <path class="cls-3" d="M835.89,149.05c-97.38,10.46-105.86,18.93-116.31,116.31-10.46-97.38-18.93-105.86-116.31-116.31,97.38-10.46,105.86-18.93,116.31-116.31,10.46,97.38,18.93,105.86,116.31,116.31Z"/>
            </g>
            <g>
              <g>
                <path class="cls-1" d="M740.37,365.31c0-8.85-2.94-16.24-8.8-22.18-5.86-5.94-15.27-9.2-28.24-9.79-.41-.02-.84-.02-1.26-.03l-1.54-27.64c6.62-7.52,11.85-14.97,15.63-22.36,5.22-10.2,40.7-38,34.37-42.12-15.57-10.15-31.76-12.08-47.58-12.6-12.17-.4-28.64-.98-50.65,6.63h-.01s-.28,.1-.28,.1c-4.17,1.45-8.5,3.07-13.03,4.9-3.16,1.28-8.12,3.35-14.86,6.22l-89.57,35.69v6.47s21.36,4.59,21.36,4.59c.61,3.4,.92,8.14,.93,14.24l.1,160.55c0,7.77-.52,13.81-1.56,18.11-1.05,4.31-3.13,7.74-6.27,10.31-3.14,2.56-7.95,5.37-14.42,8.42v6.47s37.41,8.04,37.41,8.04l27.03-16.95-1.59-17.46c10.09-4.03,19-7.48,26.68-10.33,9.72-3.61,17.09-6.43,22.11-8.46,2.34-.95,4.63-1.91,6.89-2.89l.84,17.98,44.31-15.3,43.35-41.12-7.98-28.16c4.41-9.82,6.63-20.28,6.62-31.36Zm-119.88-83.62c0-2.4,.05-4.64,.14-6.74l22.68-10.11-3.38,57.98,14.09,1.15c-1.63,4.54-3.69,8.73-6.22,12.55-4.39,6.63-10.66,11.59-18.81,14.89l-8.47,3.42-.05-73.16Zm20.5,179.18c-5.64,2.28-9.93,3.37-12.86,3.26-2.93-.11-4.92-1.9-5.96-5.36-1.05-3.46-1.57-8.97-1.58-16.52l-.05-81.9,4.39-1.78c9.02-3.65,16.72-5.59,23.13-5.85l4.73,101.31c-3.49,2.78-7.42,5.06-11.8,6.83Z"/>
                <path class="cls-1" d="M875.27,318.41c-19.53-5.15-27.71-6.21-37.41-8.04-9.27-1.75-19.69-2.94-33.14,2.5-14.09,5.7-24.97,13.99-32.65,24.85-7.68,10.88-11.51,22.09-11.51,33.66,0,7.27,1.93,13.6,5.78,18.98,3.85,5.39,10.25,9.08,19.22,11.07l33.43,6.99v-8.62c6.13-1.28,12.57-3,19.34-5.16l5.72,10.76,39.91-9.24,72.61-40.8,1.28-33.58c1.07-1.07,2.15-2.13,3.21-3.21,14.24-14.68,25.51-30.15,33.83-46.4,8.31-16.25,12.47-32.64,12.46-49.16-.01-19.83,16.38-41.78-4.66-46.33-13.92-3.01-41.49-10.69-61.66-10.14-5.14,.14-10.44,.57-15.89,1.26l7.92-31.27c.16-.15,.33-.29,.5-.44,17.44-15.81,31.04-31.89,40.8-48.23,9.75-16.34,46.56-69.53,32.61-75.56C983.04,1.92,974.51,.14,958.47,.55c-20.76,.53-46.99,.41-79.96,13.75-16.33,6.6-30.9,13.98-43.69,22.13-12.81,8.15-23.37,16.23-31.69,24.22-8.33,8-15.36,16.87-21.12,26.64s-8.63,20.27-8.63,31.5c0,11.9,3.62,20.52,10.82,25.87,2.91,2.16,6.27,3.44,10.09,3.89h0s33.88,7.36,33.88,7.36l39.79-58.77-11.48-34.11,17.53-15.62,13.96-6.61c7.47,8.94,11.21,24.26,11.23,45.95,.01,19.5-3.1,37.04-9.33,52.61-6.24,15.58-15.91,31.15-29.03,46.69-1.61,.65-3.12,1.19-4.56,1.6-1.44,.42-2.96,.95-4.56,1.6-4.8,1.94-8.73,4.19-11.77,6.74-3.05,2.56-4.56,5.65-4.56,9.28,0,2.34,.65,3.79,1.95,4.39h-.02s.09,.03,.09,.03c.33,.14,.69,.24,1.1,.27,.06,0,.12,0,.18,0l35.63,7.52,26.15-21.61c1.52,1.45,2.97,3.06,4.32,4.89,9.13,12.34,13.71,30.57,13.72,54.69,.01,18.51-2.86,36.19-8.61,53.06-5.75,16.88-14.23,31.78-25.43,44.74,0,0,0,.01-.01,.02"/>
                <path class="cls-1" d="M511.12,436.65l-4.87,1.97h0l-2.34,.95c-.28,1.76-.58,3.49-.89,5.21l-1.32-8.12-11.33,1.51,16.72-53.77-37.41-8.04-7.21,2.92c-.84,5.09-2.45,10.6-4.85,16.53-2.4,5.94-5.43,11.8-9.08,17.6-3.66,5.8-7.89,10.96-12.69,15.49-4.8,4.53-10.12,7.97-15.96,10.34l-3.17,1.28-.05-82.87c0-.88,.01-1.71,.03-2.53,21.1-8.12,42.43-16.85,61.42-24.86,2.44,1.98,4.75,4.43,6.92,7.35,5.86,7.89,10.05,20.28,12.57,37.17l37.41,8.04,4.46-4.69-18.01-62.48-17.04,6.88c.04-1.19,.08-2.38,.13-3.58,23.28-10.1,38.87-17.23,38.87-17.23l-37.41-8.04-175.3,70.89v3.88s-6.27-1.35-6.27-1.35l-65.23,26.38v6.47s24.52,5.27,24.52,5.27c1.72,3.68,2.65,8.76,2.78,15.25,.21,11.03-2.6,27.33-8.44,48.9l-9.54,35.43h0s-14.58,54.15-14.58,54.15l-41.45-112.92c-1.08-2.81-1.87-5.38-2.39-7.72,32.57-12.97,57.45-25.03,57.45-25.03l-36.9-8.27-102.86,41.6v6.47s13.11,2.82,13.11,2.82c1.09,1.5,2.06,3.47,2.9,5.93l21.34,58.49-12.54,40.19h0s-14.97,47.98-14.97,47.98l-45.57-113.76c-.82-2.19-1.47-4.69-1.97-7.47,23.73-10.16,45-20.43,45-20.43l-37.41-8.04L.5,498.1v6.47s11.52,2.48,11.52,2.48c2.52,2.12,4.86,5.69,7,10.76l72.88,172.57,37.41,8.04-1.22-26.01-2.03,.56,30.71-102.12,18.3,45.69,11.62-37.23,23.12,63.39,37.41,8.04v-29.11l-2.86,1.61,25.64-96.91,.25,3.71,20.61,45.9,39.84-137.92-7.32-36.49-18.84,1.76c.7-1.6,1.41-3.12,2.13-4.58,16.39-5.22,35.05-13.75,45.93-18.98,.26,2.82,.39,6.2,.39,10.16l.1,160.55c0,7.77-.52,13.81-1.56,18.11-1.05,4.31-3.13,7.74-6.27,10.31-3.13,2.56-7.95,5.37-14.42,8.42v6.47s37.41,8.04,37.41,8.04l36.31-19.05-5.24-17.57c6.97-2.87,13.58-5.57,19.8-8.09,8.67-3.51,15.84-6.4,21.48-8.69,2.07-.84,4.21-1.7,6.39-2.58l-6.52,20.88,83.52-32.2,24.52-89.79-37.41-8.04Zm-75.22,107.15c-5.44,2.2-9.51,3.36-12.23,3.49-2.72,.13-4.55-1.07-5.49-3.61-.94-2.53-1.42-6.71-1.42-12.54l-.05-84.16,3.17-1.28c7.93-3.2,14.92-4.14,20.98-2.82,2.9,.63,5.54,1.69,7.93,3.14l1.1,6.38,4.69-1.55c.4,.45,.8,.9,1.18,1.38,3.87,4.91,6.44,11.11,7.7,18.58l31.32,6.74c-1.71,4.98-3.57,9.63-5.59,13.94-6.48,13.84-13.53,24.63-21.15,32.35-7.63,7.73-14.89,12.99-21.79,15.77l-10.35,4.19Z"/>
              </g>
              <g>
                <path class="cls-4" d="M361.85,375.14c-3.14,1.48-6.9,3.22-11.29,5.21-4.39,1.99-8.68,3.83-12.86,5.52-7.11,2.88-13.75,5.45-19.91,7.73-6.17,2.28-13.23,4.92-21.17,7.91v6.47c8.36-3.16,14.95-3.29,19.77-.38,4.81,2.91,7.32,9.88,7.54,20.91,.21,11.03-2.6,27.33-8.44,48.9l-24.13,89.58-41.45-112.92c-2.51-6.54-3.51-11.8-2.99-15.79,.52-3.98,2.55-7.4,6.11-10.24,3.55-2.84,8.57-5.68,15.05-8.52l-.52-6.25c-5.23,2.33-11.67,5.13-20.34,8.85-8.68,3.73-17.93,7.58-27.75,11.55-9.83,3.98-19.55,7.8-29.16,11.47-9.62,3.68-17.98,6.84-25.09,9.5v6.47c3.56-1.22,6.69-1.3,9.41-.24,2.72,1.06,4.91,4.06,6.59,8.99l21.34,58.49-27.51,88.17-45.57-113.76c-1.05-2.81-1.84-6.11-2.36-9.89-.53-3.78-.22-7.47,.93-11.06,1.14-3.59,3.5-6.43,7.05-8.52v-6.47c-4.39,1.99-10.15,4.54-17.25,7.62-7.11,3.09-15.26,6.5-24.46,10.22-9.2,3.72-18.87,7.52-29.01,11.41-10.14,3.89-18.97,7.24-26.5,10.07v6.47c2.93-.97,6.07-.61,9.41,1.05,3.34,1.67,6.38,5.73,9.1,12.18l72.88,172.57c2.51-1.23,5.17-2.47,8-3.72,2.82-1.25,5.59-2.42,8.31-3.52,2.93-1.18,5.8-2.29,8.62-3.32,2.82-1.03,5.49-1.95,8-2.75l44.07-146.52,40.92,112.15c2.51-1.23,5.17-2.47,8-3.72,2.82-1.25,5.59-2.42,8.31-3.52,2.93-1.18,5.8-2.29,8.62-3.32,2.82-1.03,5.49-1.95,8-2.75l52.57-198.69c4.17-15.72,8.87-28.08,14.09-37.11,5.22-9.02,10.23-15.68,15.04-20.01v-6.47Z"/>
                <path class="cls-4" d="M547.93,497.88c-.22-9.95-.33-17.62-.33-23.02,0-12.08,.3-22.14,.92-30.16l-7.21,2.92c-3.34,20.77-8.24,38.09-14.71,51.93-6.48,13.84-13.53,24.63-21.15,32.35-7.63,7.73-14.89,12.99-21.79,15.77l-10.35,4.19c-5.44,2.2-9.51,3.36-12.23,3.49-2.72,.13-4.55-1.07-5.49-3.61-.94-2.53-1.42-6.71-1.42-12.54l-.05-84.16,3.17-1.28c7.93-3.2,14.92-4.14,20.98-2.82,6.06,1.33,11.03,4.44,14.91,9.35,3.87,4.91,6.44,11.11,7.7,18.58l7.21-2.92c-.85-11.96-1.38-21.14-1.59-27.53-.21-6.39-.32-12.28-.33-17.68,0-5.39-.06-11.31-.17-17.74-.11-6.43,.25-15.97,1.08-28.61l-7.21,2.92c-.84,5.09-2.45,10.6-4.85,16.53-2.4,5.94-5.43,11.8-9.08,17.6-3.66,5.8-7.89,10.96-12.69,15.49-4.8,4.53-10.12,7.97-15.96,10.34l-3.17,1.28-.05-82.87c0-6.04,.46-10.65,1.4-13.84,.94-3.18,2.77-5.81,5.49-7.89,2.71-2.07,6.79-4.2,12.23-6.4l4.08-1.65c8.57-3.47,16.78-4.68,24.62-3.64,7.84,1.04,14.69,5.5,20.55,13.38,5.86,7.89,10.05,20.28,12.57,37.17l7.21-2.92c-.21-2.72-.43-6.09-.63-10.11-.21-4.01-.32-8.29-.32-12.82,0-5.39,.15-13.17,.46-23.33,.31-10.16,.87-20.8,1.71-31.93-9.62,4.32-20.54,9.01-32.77,14.06-12.23,5.06-23.16,9.53-32.77,13.41-5.64,2.28-12.81,5.18-21.48,8.69-8.68,3.51-18.09,7.26-28.22,11.25-10.14,4-20.38,8.03-30.73,12.1-10.35,4.08-20.12,7.87-29.32,11.37v6.47c6.28-2.32,11.03-3.43,14.27-3.34,3.24,.1,5.38,1.82,6.43,5.17,1.05,3.36,1.57,9.03,1.58,17.01l.1,160.55c0,7.77-.52,13.81-1.56,18.11-1.05,4.31-3.13,7.74-6.27,10.31-3.13,2.56-7.95,5.37-14.42,8.42v6.47c9.2-3.93,18.98-8.05,29.33-12.34,10.35-4.29,20.59-8.54,30.73-12.75,10.14-4.21,19.55-8.07,28.22-11.58,8.67-3.51,15.84-6.4,21.48-8.69,10.45-4.23,22.37-8.99,35.75-14.3,13.38-5.3,25.4-9.89,36.06-13.77-1.05-10.36-1.69-20.52-1.9-30.48Z"/>
                <path class="cls-4" d="M768.98,351.17c-5.86-5.94-15.27-9.2-28.24-9.79-12.97-.58-30.22,2.94-51.75,10.57v-.65c16.51-8.83,30.1-18.49,40.76-28.95,10.66-10.46,18.6-20.8,23.82-31,5.22-10.2,7.83-19.08,7.82-26.64,0-14.89-7.02-24.25-21.03-28.08-14.02-3.83-35.34,.05-63.98,11.63-3.97,1.61-10.77,4.47-20.38,8.57-9.62,4.11-19.65,8.27-30.11,12.5-10.03,4.06-20.02,7.99-29.95,11.79-9.93,3.8-17.93,6.82-23.99,9.05v6.47c6.28-2.32,11.03-3.43,14.28-3.34,3.24,.1,5.38,1.82,6.43,5.17,1.05,3.36,1.57,9.03,1.58,17.01l.1,160.55c0,7.77-.52,13.81-1.56,18.11-1.05,4.31-3.13,7.74-6.27,10.31-3.14,2.56-7.95,5.37-14.42,8.42v6.47c6.07-2.88,14.06-6.38,23.99-10.51,9.93-4.12,20.12-8.3,30.58-12.53,13.59-5.5,25.24-10.05,34.97-13.66,9.72-3.61,17.09-6.43,22.11-8.46,19.44-7.86,36.22-16.86,50.33-26.99,14.11-10.13,24.92-21.36,32.44-33.68,7.52-12.32,11.28-25.71,11.27-40.17,0-8.85-2.94-16.24-8.8-22.18Zm-107.96-85.04c2.09-4.51,6.68-8.21,13.79-11.08,7.73-3.13,13.33-1.34,16.79,5.35,3.45,6.7,5.19,18.03,5.2,34,0,9.28-.83,18.3-2.49,27.07-1.67,8.77-4.69,16.47-9.08,23.1-4.39,6.63-10.66,11.59-18.81,14.89l-8.47,3.42-.05-73.16c0-11.22,1.03-19.09,3.12-23.6Zm42.93,177.72c-5.33,11.98-13.84,20.33-25.55,25.07-5.64,2.28-9.93,3.37-12.86,3.26-2.93-.11-4.92-1.9-5.96-5.36-1.05-3.46-1.57-8.97-1.58-16.52l-.05-81.9,4.39-1.78c17.77-7.18,30.47-7.79,38.11-1.81,7.63,5.98,11.46,17.28,11.47,33.89,.01,18.13-2.65,33.18-7.97,45.15Z"/>
                <path class="cls-4" d="M1026.73,187.5c-12.01-9.19-28.11-13.5-48.28-12.95-20.17,.56-42.74,5.39-67.72,14.49,22.72-14.15,42.8-29.12,60.25-44.94,17.44-15.81,31.04-31.89,40.8-48.23,9.75-16.34,14.63-32.11,14.62-47.31-.01-22.47-10.19-35.79-30.53-39.96-20.34-4.17-46.99,.41-79.96,13.75-16.33,6.6-30.9,13.98-43.69,22.13-12.81,8.15-23.37,16.23-31.69,24.22-8.33,8-15.36,16.87-21.12,26.64-5.76,9.77-8.63,20.27-8.63,31.5,0,11.9,3.62,20.52,10.82,25.87,7.21,5.35,17.21,5.44,30.02,.26,11.52-4.66,21.85-12.55,30.97-23.68,9.12-11.12,13.67-23.46,13.67-37.01,0-9.25-2.74-16.99-8.18-23.22-5.45-6.22-13.78-9.22-24.98-8.99,3.52-4.06,7.76-7.51,12.72-10.35,4.96-2.83,10-5.28,15.12-7.36,13.45-5.44,24.41-3.84,32.9,4.79,8.49,8.64,12.74,24.52,12.76,47.64,.01,19.5-3.1,37.04-9.33,52.61-6.24,15.58-15.91,31.15-29.03,46.69-1.61,.65-3.12,1.19-4.56,1.6-1.44,.42-2.96,.95-4.56,1.6-4.8,1.94-8.73,4.19-11.77,6.74-3.05,2.56-4.56,5.65-4.56,9.28,0,2.97,1.04,4.54,3.13,4.69,2.08,.15,4.24-.23,6.48-1.13,4.16-1.68,7.92-4.27,11.28-7.79,3.36-3.5,6.64-7.22,9.84-11.17,16.64-5.07,29.54-1.45,38.67,10.89,9.13,12.34,13.71,30.57,13.72,54.69,.01,18.51-2.86,36.19-8.61,53.06-5.75,16.88-14.23,31.78-25.43,44.74-11.2,12.96-25.13,22.8-41.77,29.53-6.72,2.72-12.17,4.51-16.33,5.36-4.16,.86-7.53,1.48-10.09,1.85,9.28-6.39,17.36-14.53,24.24-24.43,6.88-9.88,10.31-20.28,10.31-31.19,0-12.22-4.34-20.22-12.98-24-8.65-3.77-19.69-2.94-33.14,2.5-14.09,5.7-24.97,13.99-32.65,24.85-7.68,10.88-11.51,22.09-11.51,33.66,0,7.27,1.93,13.6,5.78,18.98,3.85,5.39,10.25,9.08,19.22,11.07,9.28,1.54,20.01,1.08,32.18-1.36,12.16-2.44,25.61-6.64,40.34-12.59,18.88-7.64,37.21-17.37,54.98-29.18,17.76-11.81,33.76-25.06,48.01-39.74,14.24-14.68,25.51-30.15,33.83-46.4,8.31-16.25,12.47-32.64,12.46-49.16-.01-19.83-6.03-34.33-18.04-43.52Z"/>
              </g>
            </g>
            <polyline class="cls-6" points=".5 498.1 37.91 506.14 37.91 512.62 12.02 507.05"/>
            <line class="cls-6" x1="165.17" y1="520.32" x2="202.57" y2="528.37"/>
            <polyline class="cls-6" points="140.93 455.9 165.23 461.13 165.23 454.65 127.82 446.61"/>
            <line class="cls-4" x1="330.71" y1="368.44" x2="361.85" y2="375.14"/>
            <line class="cls-4" x1="361.85" y1="377.89" x2="368.12" y2="379.08"/>
            <line class="cls-4" x1="330.71" y1="364.56" x2="368.12" y2="372.6"/>
            <polyline class="cls-6" points="283.74 405.22 296.63 407.99 296.62 401.52 259.21 393.47"/>
            <line class="cls-6" x1="494.78" y1="477.56" x2="500.87" y2="478.86"/>
            <line class="cls-6" x1="572.09" y1="512.87" x2="548.53" y2="507.81"/>
            <polyline class="cls-1" points="534.55 282.12 571.95 290.17 571.96 296.64 555.9 293.19"/>
            <line class="cls-1" x1="835.4" y1="205.26" x2="872.8" y2="213.3"/>
            <g>
              <path class="cls-8" d="M486.51,585.79c-104.37,11.21-113.45,20.29-124.66,124.66-11.21-104.37-20.29-113.45-124.66-124.66,104.37-11.21,113.45-20.29,124.66-124.66,11.21,104.37,20.29,113.45,124.66,124.66Z"/>
              <g class="cls-12">
                <circle class="cls-13" cx="305.24" cy="520.42" r="83.63"/>
              </g>
              <path class="cls-7" d="M486.51,585.79c-104.37,11.21-113.45,20.29-124.66,124.66-11.21-104.37-20.29-113.45-124.66-124.66,104.37-11.21,113.45-20.29,124.66-124.66,11.21,104.37,20.29,113.45,124.66,124.66Z"/>
            </g>
          </g>
          <g class="cls-9">
            <polygon class="cls-13" points="152.94 297.11 120.62 760.2 214.62 743.79 252.75 205.26 152.94 297.11"/>
            <polygon class="cls-13" points="533.19 182.96 500.87 646.05 594.87 629.64 632.99 91.11 533.19 182.96"/>
            <polygon class="cls-13" points="866.37 23.66 834.05 486.75 928.04 470.34 966.17 -68.19 866.37 23.66"/>
          </g>
        </g>
      </g>
    </g>
  </g>
</svg>