<?xml version="1.0" encoding="UTF-8"?>
<svg xmlns="http://www.w3.org/2000/svg" xmlns:xlink="http://www.w3.org/1999/xlink" viewBox="0 0 613.53 728.12">
  <defs>
    <style>
      .cls-1 {
        stroke-width: 1.04px;
      }

      .cls-1, .cls-2, .cls-3, .cls-4, .cls-5, .cls-6, .cls-7 {
        stroke-linejoin: round;
      }

      .cls-1, .cls-2, .cls-4, .cls-5, .cls-6, .cls-7 {
        stroke: #141414;
      }

      .cls-1, .cls-3, .cls-4, .cls-5, .cls-6, .cls-8 {
        fill: none;
      }

      .cls-2, .cls-6 {
        stroke-width: 1.49px;
      }

      .cls-2, .cls-7, .cls-9 {
        fill: #f9ed32;
      }

      .cls-10 {
        fill: #fff48f;
      }

      .cls-11 {
        fill: #d6c52b;
      }

      .cls-12 {
        clip-path: url(#clippath-2);
      }

      .cls-13 {
        isolation: isolate;
      }

      .cls-3 {
        stroke: #e6e7e8;
      }

      .cls-3, .cls-4 {
        stroke-width: 2.08px;
      }

      .cls-5, .cls-7 {
        stroke-width: 1.04px;
      }

      .cls-14 {
        fill: #6522bc;
      }

      .cls-15 {
        clip-path: url(#clippath-1);
      }

      .cls-16 {
        fill: #fff;
        mix-blend-mode: soft-light;
      }

      .cls-17 {
        clip-path: url(#clippath);
      }

      .cls-18 {
        fill: #882ee8;
      }

      .cls-19 {
        fill: #be92ed;
      }
    </style>
    <clipPath id="clippath">
      <path class="cls-7" d="M537.73,302.39c-61.58,6.61-66.94,11.97-73.56,73.56-6.61-61.58-11.97-66.94-73.56-73.56,61.58-6.61,66.94-11.97,73.56-73.56,6.61,61.58,11.97,66.94,73.56,73.56Z"/>
    </clipPath>
    <clipPath id="clippath-1">
      <path class="cls-8" d="M543.63,362.41l-.66,.33-7.36-141.95-1.05,.05,32.63-16.15V90.78l-89-45.5-90.78,45.5v113.7l38.27,18.67-56.24,73.49-21.25-10.86-24.76,12.41-92.89-94.66,43.08-21.32V52L171.91,0,68.17,52V181.94l103.74,50.6,57.66-28.54-.74,.73,92.66,94.43-53.29,26.71v100.21l22,10.73-76.56,62.27h0s-.36,.29-.36,.29l-21.25-10.87-8.19,4.11-24.81-73.73-.98,.33,52.06-25.77v-103.38l-80.77-41.29-4.01,2.01-4.24-42.78-2.07,.2,4.26,43.02h-.04s.06,.57,.06,.57l-76.34,38.26v103.19l82.38,40.18,27.77-13.75,24.86,73.87-49.71,24.92v74.87l59.77,29.15,32.61-16.14-.75,.72,63.83,66.25-16.44,8.24v32.48l25.93,12.65,25.42-12.59v-32.54l-17.04-8.72,42.63-50.24-.79-.67,27.38,13.35,25.87-12.8-.22,1.02,63.94,14.02-11.01,5.52v51.34l41,20,40.2-19.89v-51.45l-34.59-17.69,28.64-111.64,15,7.32,69.38-34.34v-88.8l-69.38-35.47Zm-239.8,309.26h0s-.16,.19-.16,.19l-6.48-3.32-7.55,3.79-64.05-66.48,25.03-12.39v-75.01l-35.34-18.07,76.58-62.28-.65-.8,56.98,27.79,78.45-38.82v-100.41l-55.32-28.28,56.14-73.35-.82-.63,51.55,25.15,55.37-27.41,7.34,141.6h0l.04,.81-68.08,34.12v88.63l34.01,16.59-100.61,30.47h0l-1.03,.31-30.44-15.56-6.51,3.26-19.11-56.82-1.97,.66,19.16,56.95h0l.05,.14-43.8,21.95v65.36l23.83,11.62-42.62,50.22Zm222.84-158.69l-28.58,111.39-3.72-1.9-27.04,13.56-65.18-14.29,23.8-11.78v-65.49l-18.05-9.23,100.65-30.49-.3-.99,19.44,9.48-1.01-.26Z"/>
    </clipPath>
    <clipPath id="clippath-2">
      <path class="cls-2" d="M257.9,221.34c-107.65,11.56-117.02,20.93-128.58,128.58C117.76,242.27,108.39,232.9,.74,221.34c107.65-11.56,117.02-20.93,128.58-128.58,11.56,107.65,20.93,117.02,128.58,128.58Z"/>
    </clipPath>
  </defs>
  <g class="cls-13">
    <g id="Layer_2" data-name="Layer 2">
      <g id="Layer_1-2" data-name="Layer 1">
        <g>
          <g>
            <path class="cls-9" d="M537.73,302.39c-61.58,6.61-66.94,11.97-73.56,73.56-6.61-61.58-11.97-66.94-73.56-73.56,61.58-6.61,66.94-11.97,73.56-73.56,6.61,61.58,11.97,66.94,73.56,73.56Z"/>
            <g class="cls-17">
              <circle class="cls-16" cx="505.8" cy="274.86" r="49.34"/>
            </g>
            <path class="cls-5" d="M537.73,302.39c-61.58,6.61-66.94,11.97-73.56,73.56-6.61-61.58-11.97-66.94-73.56-73.56,61.58-6.61,66.94-11.97,73.56-73.56,6.61,61.58,11.97,66.94,73.56,73.56Z"/>
          </g>
          <g>
            <g>
              <g>
                <polygon class="cls-9" points="613.01 398.8 613.01 487.61 543.63 521.94 543.63 433.49 613.01 398.8"/>
                <polygon class="cls-10" points="613.01 398.8 543.63 433.49 472.87 398.8 543.63 363.33 613.01 398.8"/>
                <polygon class="cls-18" points="567.2 91.7 567.2 205.62 478.2 249.68 478.2 136.2 567.2 91.7"/>
                <polygon class="cls-19" points="567.2 91.7 478.2 136.2 387.42 91.7 478.2 46.2 567.2 91.7"/>
                <polygon class="cls-11" points="543.63 433.49 543.63 521.94 472.87 487.43 472.87 398.8 543.63 433.49"/>
                <polygon class="cls-9" points="534.58 643.95 534.58 695.4 494.38 715.29 494.38 664.04 534.58 643.95"/>
                <polygon class="cls-10" points="534.58 643.95 494.38 664.04 453.39 643.95 494.38 623.4 534.58 643.95"/>
                <polygon class="cls-11" points="494.38 664.04 494.38 715.29 453.39 695.3 453.39 643.95 494.38 664.04"/>
                <polygon class="cls-14" points="478.2 136.2 478.2 249.68 387.42 205.4 387.42 91.7 478.2 136.2"/>
                <polygon class="cls-9" points="426.64 326.79 426.64 427.19 348.2 466.01 348.2 366.01 426.64 326.79"/>
                <polygon class="cls-10" points="426.64 326.79 348.2 366.01 268.19 326.79 348.2 286.69 426.64 326.79"/>
                <polygon class="cls-18" points="425.96 545.39 425.96 610.88 374.8 636.2 374.8 570.97 425.96 545.39"/>
                <polygon class="cls-19" points="425.96 545.39 374.8 570.97 322.62 545.39 374.8 519.24 425.96 545.39"/>
                <polygon class="cls-14" points="374.8 570.97 374.8 636.2 322.62 610.76 322.62 545.39 374.8 570.97"/>
                <polygon class="cls-11" points="348.2 366.01 348.2 466.01 268.19 427 268.19 326.79 348.2 366.01"/>
                <polygon class="cls-9" points="322.62 682.47 322.62 715.01 297.2 727.6 297.2 695.18 322.62 682.47"/>
                <polygon class="cls-10" points="322.62 682.47 297.2 695.18 271.26 682.47 297.2 669.47 322.62 682.47"/>
                <polygon class="cls-11" points="297.2 695.18 297.2 727.6 271.26 714.95 271.26 682.47 297.2 695.18"/>
                <polygon class="cls-18" points="273.62 52.92 273.62 183.12 171.91 233.46 171.91 103.78 273.62 52.92"/>
                <polygon class="cls-19" points="273.62 52.92 171.91 103.78 68.17 52.92 171.91 .93 273.62 52.92"/>
                <polygon class="cls-9" points="250.62 519.38 250.62 594.39 192.02 623.4 192.02 548.67 250.62 519.38"/>
                <polygon class="cls-10" points="250.62 519.38 192.02 548.67 132.25 519.38 192.02 489.41 250.62 519.38"/>
                <polygon class="cls-18" points="210.09 290.97 210.09 394.35 129.32 434.33 129.32 331.35 210.09 290.97"/>
                <polygon class="cls-19" points="210.09 290.97 129.32 331.35 46.94 290.97 129.32 249.68 210.09 290.97"/>
                <polygon class="cls-11" points="192.02 548.67 192.02 623.4 132.25 594.25 132.25 519.38 192.02 548.67"/>
                <polygon class="cls-14" points="171.91 103.78 171.91 233.46 68.17 182.86 68.17 52.92 171.91 103.78"/>
                <polygon class="cls-14" points="129.32 331.35 129.32 434.33 46.94 394.15 46.94 290.97 129.32 331.35"/>
              </g>
              <g>
                <polyline class="cls-1" points="426.64 326.79 426.64 427.19 348.2 466.01"/>
                <polyline class="cls-1" points="348.2 366.01 348.2 466.01 268.19 427 268.19 326.79"/>
                <polygon class="cls-1" points="268.19 326.79 348.2 286.69 426.64 326.79 348.2 366.01 268.19 326.79"/>
                <polyline class="cls-1" points="613.01 398.8 613.01 487.61 543.63 521.94"/>
                <polyline class="cls-1" points="543.63 433.49 543.63 521.94 472.87 487.43 472.87 398.8"/>
                <polygon class="cls-1" points="472.87 398.8 543.63 363.33 613.01 398.8 543.63 433.49 472.87 398.8"/>
                <polyline class="cls-1" points="250.62 519.38 250.62 594.39 192.02 623.4"/>
                <polyline class="cls-1" points="192.02 548.67 192.02 623.4 132.25 594.25 132.25 519.38"/>
                <polygon class="cls-1" points="132.25 519.38 192.02 489.41 250.62 519.38 192.02 548.67 132.25 519.38"/>
                <polyline class="cls-1" points="567.2 91.7 567.2 205.62 478.2 249.68"/>
                <polyline class="cls-1" points="478.2 136.2 478.2 249.68 387.42 205.4 387.42 91.7"/>
                <polygon class="cls-1" points="387.42 91.7 478.2 46.2 567.2 91.7 478.2 136.2 387.42 91.7"/>
                <polyline class="cls-1" points="273.62 52.92 273.62 183.12 171.91 233.46"/>
                <polyline class="cls-1" points="171.91 103.78 171.91 233.46 68.17 182.86 68.17 52.92"/>
                <polygon class="cls-1" points="68.17 52.92 171.91 .93 273.62 52.92 171.91 103.78 68.17 52.92"/>
                <polyline class="cls-1" points="210.09 290.97 210.09 394.35 129.32 434.33"/>
                <polyline class="cls-1" points="129.32 331.35 129.32 434.33 46.94 394.15 46.94 290.97"/>
                <polygon class="cls-1" points="46.94 290.97 129.32 249.68 210.09 290.97 129.32 331.35 46.94 290.97"/>
                <polyline class="cls-1" points="425.96 545.39 425.96 610.88 374.8 636.2"/>
                <polyline class="cls-1" points="374.8 570.97 374.8 636.2 322.62 610.76 322.62 545.39"/>
                <polygon class="cls-1" points="322.62 545.39 374.8 519.24 425.96 545.39 374.8 570.97 322.62 545.39"/>
                <polyline class="cls-1" points="534.58 643.95 534.58 695.4 494.38 715.29"/>
                <polyline class="cls-1" points="494.38 664.04 494.38 715.29 453.39 695.3 453.39 643.95"/>
                <polygon class="cls-1" points="453.39 643.95 494.38 623.4 534.58 643.95 494.38 664.04 453.39 643.95"/>
                <polyline class="cls-1" points="322.62 682.47 322.62 715.01 297.2 727.6"/>
                <polyline class="cls-1" points="297.2 695.18 297.2 727.6 271.26 714.95 271.26 682.47"/>
                <polygon class="cls-1" points="271.26 682.47 297.2 669.47 322.62 682.47 297.2 695.18 271.26 682.47"/>
              </g>
            </g>
            <g>
              <g>
                <polyline class="cls-3" points="229.56 204.93 348.71 326.35 426.64 224.53"/>
                <line class="cls-3" x1="543.63" y1="396.4" x2="534.58" y2="221.77"/>
                <polyline class="cls-3" points="158.03 420.12 191.43 519.38 291.22 438.22"/>
                <line class="cls-3" x1="120.04" y1="209.01" x2="128.52" y2="294.54"/>
                <polyline class="cls-3" points="400.67 623.4 494.39 643.95 527.68 514.16"/>
                <polyline class="cls-3" points="224.62 607.26 296.94 682.32 347.42 622.85"/>
                <polyline class="cls-3" points="348.2 466.02 374.8 545.11 508.25 504.69"/>
              </g>
              <g>
                <line class="cls-4" x1="124.26" y1="252.03" x2="128.52" y2="294.54"/>
                <polyline class="cls-4" points="322.46 299.59 348.71 326.35 370.39 298.03"/>
                <line class="cls-4" x1="541.94" y1="363.81" x2="543.63" y2="396.4"/>
                <polyline class="cls-4" points="367.36 522.97 374.8 545.11 406.58 535.48"/>
                <polyline class="cls-4" points="214.28 500.79 191.43 519.38 182.89 493.99"/>
                <polyline class="cls-4" points="288.67 673.74 296.94 682.32 304.63 673.27"/>
                <polyline class="cls-4" points="465.87 637.69 494.39 643.95 499.05 625.78"/>
              </g>
            </g>
          </g>
          <g class="cls-15">
            <rect class="cls-16" x="194.55" y="-58.09" width="100" height="778.89" transform="translate(105.42 -56.26) rotate(16.68)"/>
            <rect class="cls-16" x="551.96" y="189.61" width="100" height="778.89" transform="translate(191.57 -148.43) rotate(16.68)"/>
          </g>
          <g>
            <path class="cls-9" d="M257.9,221.34c-107.65,11.56-117.02,20.93-128.58,128.58C117.76,242.27,108.39,232.9,.74,221.34c107.65-11.56,117.02-20.93,128.58-128.58,11.56,107.65,20.93,117.02,128.58,128.58Z"/>
            <g class="cls-12">
              <circle class="cls-16" cx="70.93" cy="153.92" r="86.26"/>
            </g>
            <path class="cls-6" d="M257.9,221.34c-107.65,11.56-117.02,20.93-128.58,128.58C117.76,242.27,108.39,232.9,.74,221.34c107.65-11.56,117.02-20.93,128.58-128.58,11.56,107.65,20.93,117.02,128.58,128.58Z"/>
          </g>
        </g>
      </g>
    </g>
  </g>
</svg>